<?xml version="1.0" encoding="UTF-8" standalone="no"?><svg xmlns="http://www.w3.org/2000/svg" xmlns:xlink="http://www.w3.org/1999/xlink" contentScriptType="application/ecmascript" contentStyleType="text/css" height="794px" preserveAspectRatio="none" style="width:314px;height:794px;background:#FFFFFF;" version="1.1" viewBox="0 0 314 794" width="314px" zoomAndPan="magnify"><defs><filter height="300%" id="fzobnc79zbcp6" width="300%" x="-1" y="-1"><feGaussianBlur result="blurOut" stdDeviation="2.0"/><feColorMatrix in="blurOut" result="blurOut2" type="matrix" values="0 0 0 0 0 0 0 0 0 0 0 0 0 0 0 0 0 0 .4 0"/><feOffset dx="4.0" dy="4.0" in="blurOut2" result="blurOut3"/><feBlend in="SourceGraphic" in2="blurOut3" mode="normal"/></filter></defs><g><ellipse cx="115.5" cy="20" fill="#000000" filter="url(#fzobnc79zbcp6)" rx="10" ry="10" style="stroke:none;stroke-width:1.0;"/><polygon fill="#FEFECE" filter="url(#fzobnc79zbcp6)" points="47,123.6958,184,123.6958,196,135.6958,184,147.6958,47,147.6958,35,135.6958,47,123.6958" style="stroke:#A80036;stroke-width:1.5;"/><text fill="#000000" font-family="sans-serif" font-size="11" lengthAdjust="spacing" textLength="17" x="119.5" y="159.4547">yes</text><text fill="#000000" font-family="sans-serif" font-size="11" lengthAdjust="spacing" textLength="137" x="47" y="139.9638">Guard condition satisfied?</text><text fill="#000000" font-family="sans-serif" font-size="11" lengthAdjust="spacing" textLength="14" x="196" y="132.4728">no</text><ellipse cx="232" cy="135.6958" fill="#FFFFFF" filter="url(#fzobnc79zbcp6)" rx="11" ry="11" style="stroke:#000000;stroke-width:1.0;"/><ellipse cx="232" cy="135.6958" fill="#000000" rx="6" ry="6" style="stroke:#7F7F7F;stroke-width:1.0;"/><polygon fill="#FEFECE" filter="url(#fzobnc79zbcp6)" points="32,74.2049,199,74.2049,211,86.2049,199,98.2049,32,98.2049,20,86.2049,32,74.2049" style="stroke:#A80036;stroke-width:1.5;"/><text fill="#000000" font-family="sans-serif" font-size="11" lengthAdjust="spacing" textLength="17" x="119.5" y="109.9638">yes</text><text fill="#000000" font-family="sans-serif" font-size="11" lengthAdjust="spacing" textLength="167" x="32" y="90.4728">Transition has guard condition?</text><text fill="#000000" font-family="sans-serif" font-size="11" lengthAdjust="spacing" textLength="14" x="211" y="82.9819">no</text><polygon fill="#FEFECE" filter="url(#fzobnc79zbcp6)" points="115.5,181.1868,127.5,193.1868,115.5,205.1868,103.5,193.1868,115.5,181.1868" style="stroke:#A80036;stroke-width:1.5;"/><rect fill="#FEFECE" filter="url(#fzobnc79zbcp6)" height="36.3441" rx="12.5" ry="12.5" style="stroke:#A80036;stroke-width:1.5;" width="208" x="11.5" y="274.6777"/><text fill="#000000" font-family="sans-serif" font-size="12" lengthAdjust="spacing" textLength="188" x="21.5" y="297.5058">Execute current state's exit action</text><polygon fill="#FEFECE" filter="url(#fzobnc79zbcp6)" points="39.5,225.1868,191.5,225.1868,203.5,237.1868,191.5,249.1868,39.5,249.1868,27.5,237.1868,39.5,225.1868" style="stroke:#A80036;stroke-width:1.5;"/><text fill="#000000" font-family="sans-serif" font-size="11" lengthAdjust="spacing" textLength="17" x="119.5" y="260.9457">yes</text><text fill="#000000" font-family="sans-serif" font-size="11" lengthAdjust="spacing" textLength="152" x="39.5" y="241.4547">Current state has exit action?</text><text fill="#000000" font-family="sans-serif" font-size="11" lengthAdjust="spacing" textLength="14" x="203.5" y="233.9638">no</text><polygon fill="#FEFECE" filter="url(#fzobnc79zbcp6)" points="115.5,331.0218,127.5,343.0218,115.5,355.0218,103.5,343.0218,115.5,331.0218" style="stroke:#A80036;stroke-width:1.5;"/><rect fill="#FEFECE" filter="url(#fzobnc79zbcp6)" height="36.3441" rx="12.5" ry="12.5" style="stroke:#A80036;stroke-width:1.5;" width="166" x="32.5" y="424.5128"/><text fill="#000000" font-family="sans-serif" font-size="12" lengthAdjust="spacing" textLength="146" x="42.5" y="447.3408">Execute transition's action</text><polygon fill="#FEFECE" filter="url(#fzobnc79zbcp6)" points="58.5,375.0218,172.5,375.0218,184.5,387.0218,172.5,399.0218,58.5,399.0218,46.5,387.0218,58.5,375.0218" style="stroke:#A80036;stroke-width:1.5;"/><text fill="#000000" font-family="sans-serif" font-size="11" lengthAdjust="spacing" textLength="17" x="119.5" y="410.7807">yes</text><text fill="#000000" font-family="sans-serif" font-size="11" lengthAdjust="spacing" textLength="114" x="58.5" y="391.2898">Transition has action?</text><text fill="#000000" font-family="sans-serif" font-size="11" lengthAdjust="spacing" textLength="14" x="184.5" y="383.7988">no</text><polygon fill="#FEFECE" filter="url(#fzobnc79zbcp6)" points="115.5,480.8569,127.5,492.8569,115.5,504.8569,103.5,492.8569,115.5,480.8569" style="stroke:#A80036;stroke-width:1.5;"/><rect fill="#FEFECE" filter="url(#fzobnc79zbcp6)" height="36.3441" rx="12.5" ry="12.5" style="stroke:#A80036;stroke-width:1.5;" width="200" x="15.5" y="574.3478"/><text fill="#000000" font-family="sans-serif" font-size="12" lengthAdjust="spacing" textLength="180" x="25.5" y="597.1759">Execute final state's entry action</text><polygon fill="#FEFECE" filter="url(#fzobnc79zbcp6)" points="43,524.8569,188,524.8569,200,536.8569,188,548.8569,43,548.8569,31,536.8569,43,524.8569" style="stroke:#A80036;stroke-width:1.5;"/><text fill="#000000" font-family="sans-serif" font-size="11" lengthAdjust="spacing" textLength="17" x="119.5" y="560.6158">yes</text><text fill="#000000" font-family="sans-serif" font-size="11" lengthAdjust="spacing" textLength="145" x="43" y="541.1248">Final state has entry action?</text><text fill="#000000" font-family="sans-serif" font-size="11" lengthAdjust="spacing" textLength="14" x="200" y="533.6339">no</text><polygon fill="#FEFECE" filter="url(#fzobnc79zbcp6)" points="115.5,630.6919,127.5,642.6919,115.5,654.6919,103.5,642.6919,115.5,630.6919" style="stroke:#A80036;stroke-width:1.5;"/><rect fill="#FEFECE" filter="url(#fzobnc79zbcp6)" height="36.3441" rx="12.5" ry="12.5" style="stroke:#A80036;stroke-width:1.5;" width="187" x="22" y="674.6919"/><text fill="#000000" font-family="sans-serif" font-size="12" lengthAdjust="spacing" textLength="167" x="32" y="697.52">Set final state as current state</text><ellipse cx="115.5" cy="766.2409" fill="#FFFFFF" filter="url(#fzobnc79zbcp6)" rx="11" ry="11" style="stroke:#000000;stroke-width:1.0;"/><ellipse cx="115.5" cy="766.2409" fill="#000000" rx="6" ry="6" style="stroke:#7F7F7F;stroke-width:1.0;"/><line style="stroke:#A80036;stroke-width:1.5;" x1="115.5" x2="115.5" y1="147.6958" y2="181.1868"/><polygon fill="#A80036" points="111.5,171.1868,115.5,181.1868,119.5,171.1868,115.5,175.1868" style="stroke:#A80036;stroke-width:1.0;"/><line style="stroke:#A80036;stroke-width:1.5;" x1="196" x2="221" y1="135.6958" y2="135.6958"/><polygon fill="#A80036" points="211,131.6958,221,135.6958,211,139.6958,215,135.6958" style="stroke:#A80036;stroke-width:1.0;"/><line style="stroke:#A80036;stroke-width:1.5;" x1="115.5" x2="115.5" y1="98.2049" y2="123.6958"/><polygon fill="#A80036" points="111.5,113.6958,115.5,123.6958,119.5,113.6958,115.5,117.6958" style="stroke:#A80036;stroke-width:1.0;"/><line style="stroke:#A80036;stroke-width:1.5;" x1="211" x2="265" y1="86.2049" y2="86.2049"/><polygon fill="#A80036" points="261,151.1868,265,161.1868,269,151.1868,265,155.1868" style="stroke:#A80036;stroke-width:1.5;"/><line style="stroke:#A80036;stroke-width:1.5;" x1="265" x2="265" y1="86.2049" y2="193.1868"/><line style="stroke:#A80036;stroke-width:1.5;" x1="265" x2="127.5" y1="193.1868" y2="193.1868"/><polygon fill="#A80036" points="137.5,189.1868,127.5,193.1868,137.5,197.1868,133.5,193.1868" style="stroke:#A80036;stroke-width:1.0;"/><line style="stroke:#A80036;stroke-width:1.5;" x1="115.5" x2="115.5" y1="30" y2="74.2049"/><polygon fill="#A80036" points="111.5,64.2049,115.5,74.2049,119.5,64.2049,115.5,68.2049" style="stroke:#A80036;stroke-width:1.0;"/><text fill="#000000" font-family="sans-serif" font-size="11" lengthAdjust="spacing" textLength="183" x="119.5" y="53.4819">Transition to a final state triggered</text><line style="stroke:#A80036;stroke-width:1.5;" x1="115.5" x2="115.5" y1="249.1868" y2="274.6777"/><polygon fill="#A80036" points="111.5,264.6777,115.5,274.6777,119.5,264.6777,115.5,268.6777" style="stroke:#A80036;stroke-width:1.0;"/><line style="stroke:#A80036;stroke-width:1.5;" x1="203.5" x2="229.5" y1="237.1868" y2="237.1868"/><polygon fill="#A80036" points="225.5,282.8498,229.5,292.8498,233.5,282.8498,229.5,286.8498" style="stroke:#A80036;stroke-width:1.5;"/><line style="stroke:#A80036;stroke-width:1.5;" x1="229.5" x2="229.5" y1="237.1868" y2="343.0218"/><line style="stroke:#A80036;stroke-width:1.5;" x1="229.5" x2="127.5" y1="343.0218" y2="343.0218"/><polygon fill="#A80036" points="137.5,339.0218,127.5,343.0218,137.5,347.0218,133.5,343.0218" style="stroke:#A80036;stroke-width:1.0;"/><line style="stroke:#A80036;stroke-width:1.5;" x1="115.5" x2="115.5" y1="311.0218" y2="331.0218"/><polygon fill="#A80036" points="111.5,321.0218,115.5,331.0218,119.5,321.0218,115.5,325.0218" style="stroke:#A80036;stroke-width:1.0;"/><line style="stroke:#A80036;stroke-width:1.5;" x1="115.5" x2="115.5" y1="205.1868" y2="225.1868"/><polygon fill="#A80036" points="111.5,215.1868,115.5,225.1868,119.5,215.1868,115.5,219.1868" style="stroke:#A80036;stroke-width:1.0;"/><line style="stroke:#A80036;stroke-width:1.5;" x1="115.5" x2="115.5" y1="399.0218" y2="424.5128"/><polygon fill="#A80036" points="111.5,414.5128,115.5,424.5128,119.5,414.5128,115.5,418.5128" style="stroke:#A80036;stroke-width:1.0;"/><line style="stroke:#A80036;stroke-width:1.5;" x1="184.5" x2="208.5" y1="387.0218" y2="387.0218"/><polygon fill="#A80036" points="204.5,432.6848,208.5,442.6848,212.5,432.6848,208.5,436.6848" style="stroke:#A80036;stroke-width:1.5;"/><line style="stroke:#A80036;stroke-width:1.5;" x1="208.5" x2="208.5" y1="387.0218" y2="492.8569"/><line style="stroke:#A80036;stroke-width:1.5;" x1="208.5" x2="127.5" y1="492.8569" y2="492.8569"/><polygon fill="#A80036" points="137.5,488.8569,127.5,492.8569,137.5,496.8569,133.5,492.8569" style="stroke:#A80036;stroke-width:1.0;"/><line style="stroke:#A80036;stroke-width:1.5;" x1="115.5" x2="115.5" y1="460.8569" y2="480.8569"/><polygon fill="#A80036" points="111.5,470.8569,115.5,480.8569,119.5,470.8569,115.5,474.8569" style="stroke:#A80036;stroke-width:1.0;"/><line style="stroke:#A80036;stroke-width:1.5;" x1="115.5" x2="115.5" y1="355.0218" y2="375.0218"/><polygon fill="#A80036" points="111.5,365.0218,115.5,375.0218,119.5,365.0218,115.5,369.0218" style="stroke:#A80036;stroke-width:1.0;"/><line style="stroke:#A80036;stroke-width:1.5;" x1="115.5" x2="115.5" y1="548.8569" y2="574.3478"/><polygon fill="#A80036" points="111.5,564.3478,115.5,574.3478,119.5,564.3478,115.5,568.3478" style="stroke:#A80036;stroke-width:1.0;"/><line style="stroke:#A80036;stroke-width:1.5;" x1="200" x2="225.5" y1="536.8569" y2="536.8569"/><polygon fill="#A80036" points="221.5,582.5199,225.5,592.5199,229.5,582.5199,225.5,586.5199" style="stroke:#A80036;stroke-width:1.5;"/><line style="stroke:#A80036;stroke-width:1.5;" x1="225.5" x2="225.5" y1="536.8569" y2="642.6919"/><line style="stroke:#A80036;stroke-width:1.5;" x1="225.5" x2="127.5" y1="642.6919" y2="642.6919"/><polygon fill="#A80036" points="137.5,638.6919,127.5,642.6919,137.5,646.6919,133.5,642.6919" style="stroke:#A80036;stroke-width:1.0;"/><line style="stroke:#A80036;stroke-width:1.5;" x1="115.5" x2="115.5" y1="610.6919" y2="630.6919"/><polygon fill="#A80036" points="111.5,620.6919,115.5,630.6919,119.5,620.6919,115.5,624.6919" style="stroke:#A80036;stroke-width:1.0;"/><line style="stroke:#A80036;stroke-width:1.5;" x1="115.5" x2="115.5" y1="504.8569" y2="524.8569"/><polygon fill="#A80036" points="111.5,514.8569,115.5,524.8569,119.5,514.8569,115.5,518.8569" style="stroke:#A80036;stroke-width:1.0;"/><line style="stroke:#A80036;stroke-width:1.5;" x1="115.5" x2="115.5" y1="654.6919" y2="674.6919"/><polygon fill="#A80036" points="111.5,664.6919,115.5,674.6919,119.5,664.6919,115.5,668.6919" style="stroke:#A80036;stroke-width:1.0;"/><line style="stroke:#A80036;stroke-width:1.5;" x1="115.5" x2="115.5" y1="711.036" y2="755.2409"/><polygon fill="#A80036" points="111.5,745.2409,115.5,755.2409,119.5,745.2409,115.5,749.2409" style="stroke:#A80036;stroke-width:1.0;"/><text fill="#000000" font-family="sans-serif" font-size="11" lengthAdjust="spacing" textLength="119" x="119.5" y="734.5179">State machine stopped</text><!--MD5=[dd912bb1a942e73e6903c9565fe66911]
@startuml FinalTransitionWorkflow
start

-> Transition to a final state triggered;

if (Transition has guard condition?) then (yes)
     if (Guard condition satisfied?) then (no)
          stop
     else (yes)
     endif
else (no)
endif

if (Current state has exit action?) then (yes)
     :Execute current state's exit action;
else (no)
endif

if (Transition has action?) then (yes)
     :Execute transition's action;
else (no)
endif

if (Final state has entry action?) then (yes)
     :Execute final state's entry action;
else (no)
endif

:Set final state as current state;

-> State machine stopped;

stop
@enduml

PlantUML version 1.2021.7(Sun May 23 14:40:07 CEST 2021)
(GPL source distribution)
Java Runtime: OpenJDK Runtime Environment
JVM: OpenJDK 64-Bit Server VM
Default Encoding: UTF-8
Language: en
Country: US
--></g></svg>