<?xml version="1.0" encoding="UTF-8" standalone="no"?><svg xmlns="http://www.w3.org/2000/svg" xmlns:xlink="http://www.w3.org/1999/xlink" contentScriptType="application/ecmascript" contentStyleType="text/css" height="469px" preserveAspectRatio="none" style="width:253px;height:469px;" version="1.1" viewBox="0 0 253 469" width="253px" zoomAndPan="magnify"><defs><filter height="300%" id="f1726h4m5drzgs" width="300%" x="-1" y="-1"><feGaussianBlur result="blurOut" stdDeviation="2.0"/><feColorMatrix in="blurOut" result="blurOut2" type="matrix" values="0 0 0 0 0 0 0 0 0 0 0 0 0 0 0 0 0 0 .4 0"/><feOffset dx="4.0" dy="4.0" in="blurOut2" result="blurOut3"/><feBlend in="SourceGraphic" in2="blurOut3" mode="normal"/></filter></defs><g><ellipse cx="114" cy="20" fill="#000000" filter="url(#f1726h4m5drzgs)" rx="10" ry="10" style="stroke:none;stroke-width:1.0;"/><rect fill="#FEFECE" filter="url(#f1726h4m5drzgs)" height="36.3441" rx="12.5" ry="12.5" style="stroke:#A80036;stroke-width:1.5;" width="199" x="14.5" y="123.6958"/><text fill="#000000" font-family="sans-serif" font-size="12" lengthAdjust="spacing" textLength="179" x="24.5" y="146.5239">Execute initial transition's action</text><polygon fill="#FEFECE" filter="url(#f1726h4m5drzgs)" points="41.5,74.2049,186.5,74.2049,198.5,86.2049,186.5,98.2049,41.5,98.2049,29.5,86.2049,41.5,74.2049" style="stroke:#A80036;stroke-width:1.5;"/><text fill="#000000" font-family="sans-serif" font-size="11" lengthAdjust="spacing" textLength="17" x="118" y="109.9638">yes</text><text fill="#000000" font-family="sans-serif" font-size="11" lengthAdjust="spacing" textLength="145" x="41.5" y="90.4728">Initial transition has action?</text><text fill="#000000" font-family="sans-serif" font-size="11" lengthAdjust="spacing" textLength="14" x="198.5" y="82.9819">no</text><polygon fill="#FEFECE" filter="url(#f1726h4m5drzgs)" points="114,180.0399,126,192.0399,114,204.0399,102,192.0399,114,180.0399" style="stroke:#A80036;stroke-width:1.5;"/><rect fill="#FEFECE" filter="url(#f1726h4m5drzgs)" height="36.3441" rx="12.5" ry="12.5" style="stroke:#A80036;stroke-width:1.5;" width="206" x="11" y="273.5309"/><text fill="#000000" font-family="sans-serif" font-size="12" lengthAdjust="spacing" textLength="186" x="21" y="296.359">Execute initial state's entry action</text><polygon fill="#FEFECE" filter="url(#f1726h4m5drzgs)" points="39,224.0399,189,224.0399,201,236.0399,189,248.0399,39,248.0399,27,236.0399,39,224.0399" style="stroke:#A80036;stroke-width:1.5;"/><text fill="#000000" font-family="sans-serif" font-size="11" lengthAdjust="spacing" textLength="17" x="118" y="259.7988">yes</text><text fill="#000000" font-family="sans-serif" font-size="11" lengthAdjust="spacing" textLength="150" x="39" y="240.3079">Initial state has entry action?</text><text fill="#000000" font-family="sans-serif" font-size="11" lengthAdjust="spacing" textLength="14" x="201" y="232.8169">no</text><polygon fill="#FEFECE" filter="url(#f1726h4m5drzgs)" points="114,329.875,126,341.875,114,353.875,102,341.875,114,329.875" style="stroke:#A80036;stroke-width:1.5;"/><rect fill="#FEFECE" filter="url(#f1726h4m5drzgs)" height="36.3441" rx="12.5" ry="12.5" style="stroke:#A80036;stroke-width:1.5;" width="193" x="17.5" y="373.875"/><text fill="#000000" font-family="sans-serif" font-size="12" lengthAdjust="spacing" textLength="173" x="27.5" y="396.7031">Set initial state as current state</text><ellipse cx="114" cy="441.2191" fill="#FFFFFF" filter="url(#f1726h4m5drzgs)" rx="11" ry="11" style="stroke:#000000;stroke-width:1.0;"/><ellipse cx="114" cy="441.2191" fill="#000000" rx="6" ry="6" style="stroke:#7F7F7F;stroke-width:1.0;"/><line style="stroke:#A80036;stroke-width:1.5;" x1="114" x2="114" y1="98.2049" y2="123.6958"/><polygon fill="#A80036" points="110,113.6958,114,123.6958,118,113.6958,114,117.6958" style="stroke:#A80036;stroke-width:1.0;"/><line style="stroke:#A80036;stroke-width:1.5;" x1="198.5" x2="223.5" y1="86.2049" y2="86.2049"/><polygon fill="#A80036" points="219.5,131.8679,223.5,141.8679,227.5,131.8679,223.5,135.8679" style="stroke:#A80036;stroke-width:1.5;"/><line style="stroke:#A80036;stroke-width:1.5;" x1="223.5" x2="223.5" y1="86.2049" y2="192.0399"/><line style="stroke:#A80036;stroke-width:1.5;" x1="223.5" x2="126" y1="192.0399" y2="192.0399"/><polygon fill="#A80036" points="136,188.0399,126,192.0399,136,196.0399,132,192.0399" style="stroke:#A80036;stroke-width:1.0;"/><line style="stroke:#A80036;stroke-width:1.5;" x1="114" x2="114" y1="160.0399" y2="180.0399"/><polygon fill="#A80036" points="110,170.0399,114,180.0399,118,170.0399,114,174.0399" style="stroke:#A80036;stroke-width:1.0;"/><line style="stroke:#A80036;stroke-width:1.5;" x1="114" x2="114" y1="30" y2="74.2049"/><polygon fill="#A80036" points="110,64.2049,114,74.2049,118,64.2049,114,68.2049" style="stroke:#A80036;stroke-width:1.0;"/><text fill="#000000" font-family="sans-serif" font-size="11" lengthAdjust="spacing" textLength="113" x="118" y="53.4819">State machine started</text><line style="stroke:#A80036;stroke-width:1.5;" x1="114" x2="114" y1="248.0399" y2="273.5309"/><polygon fill="#A80036" points="110,263.5309,114,273.5309,118,263.5309,114,267.5309" style="stroke:#A80036;stroke-width:1.0;"/><line style="stroke:#A80036;stroke-width:1.5;" x1="201" x2="227" y1="236.0399" y2="236.0399"/><polygon fill="#A80036" points="223,281.7029,227,291.7029,231,281.7029,227,285.7029" style="stroke:#A80036;stroke-width:1.5;"/><line style="stroke:#A80036;stroke-width:1.5;" x1="227" x2="227" y1="236.0399" y2="341.875"/><line style="stroke:#A80036;stroke-width:1.5;" x1="227" x2="126" y1="341.875" y2="341.875"/><polygon fill="#A80036" points="136,337.875,126,341.875,136,345.875,132,341.875" style="stroke:#A80036;stroke-width:1.0;"/><line style="stroke:#A80036;stroke-width:1.5;" x1="114" x2="114" y1="309.875" y2="329.875"/><polygon fill="#A80036" points="110,319.875,114,329.875,118,319.875,114,323.875" style="stroke:#A80036;stroke-width:1.0;"/><line style="stroke:#A80036;stroke-width:1.5;" x1="114" x2="114" y1="204.0399" y2="224.0399"/><polygon fill="#A80036" points="110,214.0399,114,224.0399,118,214.0399,114,218.0399" style="stroke:#A80036;stroke-width:1.0;"/><line style="stroke:#A80036;stroke-width:1.5;" x1="114" x2="114" y1="353.875" y2="373.875"/><polygon fill="#A80036" points="110,363.875,114,373.875,118,363.875,114,367.875" style="stroke:#A80036;stroke-width:1.0;"/><line style="stroke:#A80036;stroke-width:1.5;" x1="114" x2="114" y1="410.2191" y2="430.2191"/><polygon fill="#A80036" points="110,420.2191,114,430.2191,118,420.2191,114,424.2191" style="stroke:#A80036;stroke-width:1.0;"/><!--MD5=[1b612dee20ad82f62b9370c4a68cca78]
@startuml InitialTransitionWorkflow
start

-> State machine started;

if (Initial transition has action?) then (yes)
     :Execute initial transition's action;
else (no)
endif

if (Initial state has entry action?) then (yes)
     :Execute initial state's entry action;
else (no)
endif

:Set initial state as current state;

stop
@enduml

PlantUML version 1.2021.00(Sun Jan 10 11:25:05 CET 2021)
(GPL source distribution)
Java Runtime: OpenJDK Runtime Environment
JVM: OpenJDK 64-Bit Server VM
Default Encoding: UTF-8
Language: en
Country: US
--></g></svg>