<?xml version="1.0" encoding="UTF-8" standalone="no"?><svg xmlns="http://www.w3.org/2000/svg" xmlns:xlink="http://www.w3.org/1999/xlink" contentScriptType="application/ecmascript" contentStyleType="text/css" height="377px" preserveAspectRatio="none" style="width:291px;height:377px;" version="1.1" viewBox="0 0 291 377" width="291px" zoomAndPan="magnify"><defs><filter height="300%" id="f1d2g109kjgk55" width="300%" x="-1" y="-1"><feGaussianBlur result="blurOut" stdDeviation="2.0"/><feColorMatrix in="blurOut" result="blurOut2" type="matrix" values="0 0 0 0 0 0 0 0 0 0 0 0 0 0 0 0 0 0 .4 0"/><feOffset dx="4.0" dy="4.0" in="blurOut2" result="blurOut3"/><feBlend in="SourceGraphic" in2="blurOut3" mode="normal"/></filter></defs><g><ellipse cx="115.5" cy="20" fill="#000000" filter="url(#f1d2g109kjgk55)" rx="10" ry="10" style="stroke:none;stroke-width:1.0;"/><polygon fill="#FEFECE" filter="url(#f1d2g109kjgk55)" points="38.5,74.2049,192.5,74.2049,204.5,86.2049,192.5,98.2049,38.5,98.2049,26.5,86.2049,38.5,74.2049" style="stroke:#A80036;stroke-width:1.5;"/><text fill="#000000" font-family="sans-serif" font-size="11" lengthAdjust="spacing" textLength="17" x="119.5" y="109.9638">yes</text><text fill="#000000" font-family="sans-serif" font-size="11" lengthAdjust="spacing" textLength="154" x="38.5" y="90.4728">Internal transition triggered?</text><text fill="#000000" font-family="sans-serif" font-size="11" lengthAdjust="spacing" textLength="14" x="204.5" y="82.9819">no</text><ellipse cx="240.5" cy="86.2049" fill="#FFFFFF" filter="url(#f1d2g109kjgk55)" rx="11" ry="11" style="stroke:#000000;stroke-width:1.0;"/><ellipse cx="240.5" cy="86.2049" fill="#000000" rx="6" ry="6" style="stroke:#7F7F7F;stroke-width:1.0;"/><polygon fill="#FEFECE" filter="url(#f1d2g109kjgk55)" points="47,180.9547,184,180.9547,196,192.9547,184,204.9547,47,204.9547,35,192.9547,47,180.9547" style="stroke:#A80036;stroke-width:1.5;"/><text fill="#000000" font-family="sans-serif" font-size="11" lengthAdjust="spacing" textLength="17" x="119.5" y="216.7136">yes</text><text fill="#000000" font-family="sans-serif" font-size="11" lengthAdjust="spacing" textLength="137" x="47" y="197.2227">Guard condition satisfied?</text><text fill="#000000" font-family="sans-serif" font-size="11" lengthAdjust="spacing" textLength="14" x="196" y="189.7317">no</text><ellipse cx="232" cy="192.9547" fill="#FFFFFF" filter="url(#f1d2g109kjgk55)" rx="11" ry="11" style="stroke:#000000;stroke-width:1.0;"/><ellipse cx="232" cy="192.9547" fill="#000000" rx="6" ry="6" style="stroke:#7F7F7F;stroke-width:1.0;"/><polygon fill="#FEFECE" filter="url(#f1d2g109kjgk55)" points="32,131.4638,199,131.4638,211,143.4638,199,155.4638,32,155.4638,20,143.4638,32,131.4638" style="stroke:#A80036;stroke-width:1.5;"/><text fill="#000000" font-family="sans-serif" font-size="11" lengthAdjust="spacing" textLength="17" x="119.5" y="167.2227">yes</text><text fill="#000000" font-family="sans-serif" font-size="11" lengthAdjust="spacing" textLength="167" x="32" y="147.7317">Transition has guard condition?</text><text fill="#000000" font-family="sans-serif" font-size="11" lengthAdjust="spacing" textLength="14" x="211" y="140.2408">no</text><polygon fill="#FEFECE" filter="url(#f1d2g109kjgk55)" points="115.5,238.4457,127.5,250.4457,115.5,262.4457,103.5,250.4457,115.5,238.4457" style="stroke:#A80036;stroke-width:1.5;"/><rect fill="#FEFECE" filter="url(#f1d2g109kjgk55)" height="36.3441" rx="12.5" ry="12.5" style="stroke:#A80036;stroke-width:1.5;" width="166" x="32.5" y="282.4457"/><text fill="#000000" font-family="sans-serif" font-size="12" lengthAdjust="spacing" textLength="146" x="42.5" y="305.2738">Execute transition's action</text><ellipse cx="115.5" cy="349.7898" fill="#FFFFFF" filter="url(#f1d2g109kjgk55)" rx="11" ry="11" style="stroke:#000000;stroke-width:1.0;"/><ellipse cx="115.5" cy="349.7898" fill="#000000" rx="6" ry="6" style="stroke:#7F7F7F;stroke-width:1.0;"/><line style="stroke:#A80036;stroke-width:1.5;" x1="115.5" x2="115.5" y1="98.2049" y2="131.4638"/><polygon fill="#A80036" points="111.5,121.4638,115.5,131.4638,119.5,121.4638,115.5,125.4638" style="stroke:#A80036;stroke-width:1.0;"/><line style="stroke:#A80036;stroke-width:1.5;" x1="204.5" x2="229.5" y1="86.2049" y2="86.2049"/><polygon fill="#A80036" points="219.5,82.2049,229.5,86.2049,219.5,90.2049,223.5,86.2049" style="stroke:#A80036;stroke-width:1.0;"/><line style="stroke:#A80036;stroke-width:1.5;" x1="115.5" x2="115.5" y1="30" y2="74.2049"/><polygon fill="#A80036" points="111.5,64.2049,115.5,74.2049,119.5,64.2049,115.5,68.2049" style="stroke:#A80036;stroke-width:1.0;"/><text fill="#000000" font-family="sans-serif" font-size="11" lengthAdjust="spacing" textLength="76" x="119.5" y="53.4819">Event received</text><line style="stroke:#A80036;stroke-width:1.5;" x1="115.5" x2="115.5" y1="204.9547" y2="238.4457"/><polygon fill="#A80036" points="111.5,228.4457,115.5,238.4457,119.5,228.4457,115.5,232.4457" style="stroke:#A80036;stroke-width:1.0;"/><line style="stroke:#A80036;stroke-width:1.5;" x1="196" x2="221" y1="192.9547" y2="192.9547"/><polygon fill="#A80036" points="211,188.9547,221,192.9547,211,196.9547,215,192.9547" style="stroke:#A80036;stroke-width:1.0;"/><line style="stroke:#A80036;stroke-width:1.5;" x1="115.5" x2="115.5" y1="155.4638" y2="180.9547"/><polygon fill="#A80036" points="111.5,170.9547,115.5,180.9547,119.5,170.9547,115.5,174.9547" style="stroke:#A80036;stroke-width:1.0;"/><line style="stroke:#A80036;stroke-width:1.5;" x1="211" x2="265" y1="143.4638" y2="143.4638"/><polygon fill="#A80036" points="261,208.4457,265,218.4457,269,208.4457,265,212.4457" style="stroke:#A80036;stroke-width:1.5;"/><line style="stroke:#A80036;stroke-width:1.5;" x1="265" x2="265" y1="143.4638" y2="250.4457"/><line style="stroke:#A80036;stroke-width:1.5;" x1="265" x2="127.5" y1="250.4457" y2="250.4457"/><polygon fill="#A80036" points="137.5,246.4457,127.5,250.4457,137.5,254.4457,133.5,250.4457" style="stroke:#A80036;stroke-width:1.0;"/><line style="stroke:#A80036;stroke-width:1.5;" x1="115.5" x2="115.5" y1="262.4457" y2="282.4457"/><polygon fill="#A80036" points="111.5,272.4457,115.5,282.4457,119.5,272.4457,115.5,276.4457" style="stroke:#A80036;stroke-width:1.0;"/><line style="stroke:#A80036;stroke-width:1.5;" x1="115.5" x2="115.5" y1="318.7898" y2="338.7898"/><polygon fill="#A80036" points="111.5,328.7898,115.5,338.7898,119.5,328.7898,115.5,332.7898" style="stroke:#A80036;stroke-width:1.0;"/><!--MD5=[1a62c334f32866eceb0d5647c3bf6cb0]
@startuml InternalTransition
start

-> Event received;

if (Internal transition triggered?) then (no)
     stop
else (yes)
endif

if (Transition has guard condition?) then (yes)
     if (Guard condition satisfied?) then (no)
          stop
     else (yes)
     endif
else (no)
endif

:Execute transition's action;

stop
@enduml

PlantUML version 1.2021.00(Sun Jan 10 11:25:05 CET 2021)
(GPL source distribution)
Java Runtime: OpenJDK Runtime Environment
JVM: OpenJDK 64-Bit Server VM
Default Encoding: UTF-8
Language: en
Country: US
--></g></svg>