<?xml version="1.0" encoding="UTF-8" standalone="no"?><svg xmlns="http://www.w3.org/2000/svg" xmlns:xlink="http://www.w3.org/1999/xlink" contentScriptType="application/ecmascript" contentStyleType="text/css" height="320px" preserveAspectRatio="none" style="width:291px;height:320px;background:#FFFFFF;" version="1.1" viewBox="0 0 291 320" width="291px" zoomAndPan="magnify"><defs><filter height="300%" id="f13trpw9hh1xcj" width="300%" x="-1" y="-1"><feGaussianBlur result="blurOut" stdDeviation="2.0"/><feColorMatrix in="blurOut" result="blurOut2" type="matrix" values="0 0 0 0 0 0 0 0 0 0 0 0 0 0 0 0 0 0 .4 0"/><feOffset dx="4.0" dy="4.0" in="blurOut2" result="blurOut3"/><feBlend in="SourceGraphic" in2="blurOut3" mode="normal"/></filter></defs><g><ellipse cx="115.5" cy="20" fill="#000000" filter="url(#f13trpw9hh1xcj)" rx="10" ry="10" style="stroke:none;stroke-width:1.0;"/><polygon fill="#FEFECE" filter="url(#f13trpw9hh1xcj)" points="47,123.6958,184,123.6958,196,135.6958,184,147.6958,47,147.6958,35,135.6958,47,123.6958" style="stroke:#A80036;stroke-width:1.5;"/><text fill="#000000" font-family="sans-serif" font-size="11" lengthAdjust="spacing" textLength="17" x="119.5" y="159.4547">yes</text><text fill="#000000" font-family="sans-serif" font-size="11" lengthAdjust="spacing" textLength="137" x="47" y="139.9638">Guard condition satisfied?</text><text fill="#000000" font-family="sans-serif" font-size="11" lengthAdjust="spacing" textLength="14" x="196" y="132.4728">no</text><ellipse cx="232" cy="135.6958" fill="#FFFFFF" filter="url(#f13trpw9hh1xcj)" rx="11" ry="11" style="stroke:#000000;stroke-width:1.0;"/><ellipse cx="232" cy="135.6958" fill="#000000" rx="6" ry="6" style="stroke:#7F7F7F;stroke-width:1.0;"/><polygon fill="#FEFECE" filter="url(#f13trpw9hh1xcj)" points="32,74.2049,199,74.2049,211,86.2049,199,98.2049,32,98.2049,20,86.2049,32,74.2049" style="stroke:#A80036;stroke-width:1.5;"/><text fill="#000000" font-family="sans-serif" font-size="11" lengthAdjust="spacing" textLength="17" x="119.5" y="109.9638">yes</text><text fill="#000000" font-family="sans-serif" font-size="11" lengthAdjust="spacing" textLength="167" x="32" y="90.4728">Transition has guard condition?</text><text fill="#000000" font-family="sans-serif" font-size="11" lengthAdjust="spacing" textLength="14" x="211" y="82.9819">no</text><polygon fill="#FEFECE" filter="url(#f13trpw9hh1xcj)" points="115.5,181.1868,127.5,193.1868,115.5,205.1868,103.5,193.1868,115.5,181.1868" style="stroke:#A80036;stroke-width:1.5;"/><rect fill="#FEFECE" filter="url(#f13trpw9hh1xcj)" height="36.3441" rx="12.5" ry="12.5" style="stroke:#A80036;stroke-width:1.5;" width="166" x="32.5" y="225.1868"/><text fill="#000000" font-family="sans-serif" font-size="12" lengthAdjust="spacing" textLength="146" x="42.5" y="248.0148">Execute transition's action</text><ellipse cx="115.5" cy="292.5309" fill="#FFFFFF" filter="url(#f13trpw9hh1xcj)" rx="11" ry="11" style="stroke:#000000;stroke-width:1.0;"/><ellipse cx="115.5" cy="292.5309" fill="#000000" rx="6" ry="6" style="stroke:#7F7F7F;stroke-width:1.0;"/><line style="stroke:#A80036;stroke-width:1.5;" x1="115.5" x2="115.5" y1="147.6958" y2="181.1868"/><polygon fill="#A80036" points="111.5,171.1868,115.5,181.1868,119.5,171.1868,115.5,175.1868" style="stroke:#A80036;stroke-width:1.0;"/><line style="stroke:#A80036;stroke-width:1.5;" x1="196" x2="221" y1="135.6958" y2="135.6958"/><polygon fill="#A80036" points="211,131.6958,221,135.6958,211,139.6958,215,135.6958" style="stroke:#A80036;stroke-width:1.0;"/><line style="stroke:#A80036;stroke-width:1.5;" x1="115.5" x2="115.5" y1="98.2049" y2="123.6958"/><polygon fill="#A80036" points="111.5,113.6958,115.5,123.6958,119.5,113.6958,115.5,117.6958" style="stroke:#A80036;stroke-width:1.0;"/><line style="stroke:#A80036;stroke-width:1.5;" x1="211" x2="265" y1="86.2049" y2="86.2049"/><polygon fill="#A80036" points="261,151.1868,265,161.1868,269,151.1868,265,155.1868" style="stroke:#A80036;stroke-width:1.5;"/><line style="stroke:#A80036;stroke-width:1.5;" x1="265" x2="265" y1="86.2049" y2="193.1868"/><line style="stroke:#A80036;stroke-width:1.5;" x1="265" x2="127.5" y1="193.1868" y2="193.1868"/><polygon fill="#A80036" points="137.5,189.1868,127.5,193.1868,137.5,197.1868,133.5,193.1868" style="stroke:#A80036;stroke-width:1.0;"/><line style="stroke:#A80036;stroke-width:1.5;" x1="115.5" x2="115.5" y1="30" y2="74.2049"/><polygon fill="#A80036" points="111.5,64.2049,115.5,74.2049,119.5,64.2049,115.5,68.2049" style="stroke:#A80036;stroke-width:1.0;"/><text fill="#000000" font-family="sans-serif" font-size="11" lengthAdjust="spacing" textLength="149" x="119.5" y="53.4819">Internal transition triggered</text><line style="stroke:#A80036;stroke-width:1.5;" x1="115.5" x2="115.5" y1="205.1868" y2="225.1868"/><polygon fill="#A80036" points="111.5,215.1868,115.5,225.1868,119.5,215.1868,115.5,219.1868" style="stroke:#A80036;stroke-width:1.0;"/><line style="stroke:#A80036;stroke-width:1.5;" x1="115.5" x2="115.5" y1="261.5309" y2="281.5309"/><polygon fill="#A80036" points="111.5,271.5309,115.5,281.5309,119.5,271.5309,115.5,275.5309" style="stroke:#A80036;stroke-width:1.0;"/><!--MD5=[2a7b42917d5686f4a743f9c675023250]
@startuml InternalTransitionWorkflow
start

-> Internal transition triggered;

if (Transition has guard condition?) then (yes)
     if (Guard condition satisfied?) then (no)
          stop
     else (yes)
     endif
else (no)
endif

:Execute transition's action;

stop
@enduml

PlantUML version 1.2021.7(Sun May 23 14:40:07 CEST 2021)
(GPL source distribution)
Java Runtime: OpenJDK Runtime Environment
JVM: OpenJDK 64-Bit Server VM
Default Encoding: UTF-8
Language: en
Country: US
--></g></svg>