<?xml version="1.0" encoding="UTF-8" standalone="no"?><svg xmlns="http://www.w3.org/2000/svg" xmlns:xlink="http://www.w3.org/1999/xlink" contentScriptType="application/ecmascript" contentStyleType="text/css" height="827px" preserveAspectRatio="none" style="width:297px;height:827px;" version="1.1" viewBox="0 0 297 827" width="297px" zoomAndPan="magnify"><defs><filter height="300%" id="f26a1daoytqu4" width="300%" x="-1" y="-1"><feGaussianBlur result="blurOut" stdDeviation="2.0"/><feColorMatrix in="blurOut" result="blurOut2" type="matrix" values="0 0 0 0 0 0 0 0 0 0 0 0 0 0 0 0 0 0 .4 0"/><feOffset dx="4.0" dy="4.0" in="blurOut2" result="blurOut3"/><feBlend in="SourceGraphic" in2="blurOut3" mode="normal"/></filter></defs><g><ellipse cx="121.5" cy="20" fill="#000000" filter="url(#f26a1daoytqu4)" rx="10" ry="10" style="stroke:none;stroke-width:1.0;"/><polygon fill="#FEFECE" filter="url(#f26a1daoytqu4)" points="32,74.2049,211,74.2049,223,86.2049,211,98.2049,32,98.2049,20,86.2049,32,74.2049" style="stroke:#A80036;stroke-width:1.5;"/><text fill="#000000" font-family="sans-serif" font-size="11" lengthAdjust="spacing" textLength="17" x="125.5" y="109.9638">yes</text><text fill="#000000" font-family="sans-serif" font-size="11" lengthAdjust="spacing" textLength="179" x="32" y="90.4728">State has transition for this event?</text><text fill="#000000" font-family="sans-serif" font-size="11" lengthAdjust="spacing" textLength="14" x="223" y="82.9819">no</text><ellipse cx="259" cy="86.2049" fill="#FFFFFF" filter="url(#f26a1daoytqu4)" rx="11" ry="11" style="stroke:#000000;stroke-width:1.0;"/><ellipse cx="259" cy="86.2049" fill="#000000" rx="6" ry="6" style="stroke:#7F7F7F;stroke-width:1.0;"/><polygon fill="#FEFECE" filter="url(#f26a1daoytqu4)" points="53,180.9547,190,180.9547,202,192.9547,190,204.9547,53,204.9547,41,192.9547,53,180.9547" style="stroke:#A80036;stroke-width:1.5;"/><text fill="#000000" font-family="sans-serif" font-size="11" lengthAdjust="spacing" textLength="17" x="125.5" y="216.7136">yes</text><text fill="#000000" font-family="sans-serif" font-size="11" lengthAdjust="spacing" textLength="137" x="53" y="197.2227">Guard condition satisfied?</text><text fill="#000000" font-family="sans-serif" font-size="11" lengthAdjust="spacing" textLength="14" x="202" y="189.7317">no</text><ellipse cx="238" cy="192.9547" fill="#FFFFFF" filter="url(#f26a1daoytqu4)" rx="11" ry="11" style="stroke:#000000;stroke-width:1.0;"/><ellipse cx="238" cy="192.9547" fill="#000000" rx="6" ry="6" style="stroke:#7F7F7F;stroke-width:1.0;"/><polygon fill="#FEFECE" filter="url(#f26a1daoytqu4)" points="38,131.4638,205,131.4638,217,143.4638,205,155.4638,38,155.4638,26,143.4638,38,131.4638" style="stroke:#A80036;stroke-width:1.5;"/><text fill="#000000" font-family="sans-serif" font-size="11" lengthAdjust="spacing" textLength="17" x="125.5" y="167.2227">yes</text><text fill="#000000" font-family="sans-serif" font-size="11" lengthAdjust="spacing" textLength="167" x="38" y="147.7317">Transition has guard condition?</text><text fill="#000000" font-family="sans-serif" font-size="11" lengthAdjust="spacing" textLength="14" x="217" y="140.2408">no</text><polygon fill="#FEFECE" filter="url(#f26a1daoytqu4)" points="121.5,238.4457,133.5,250.4457,121.5,262.4457,109.5,250.4457,121.5,238.4457" style="stroke:#A80036;stroke-width:1.5;"/><rect fill="#FEFECE" filter="url(#f26a1daoytqu4)" height="36.3441" rx="12.5" ry="12.5" style="stroke:#A80036;stroke-width:1.5;" width="208" x="17.5" y="331.9366"/><text fill="#000000" font-family="sans-serif" font-size="12" lengthAdjust="spacing" textLength="188" x="27.5" y="354.7647">Execute current state's exit action</text><polygon fill="#FEFECE" filter="url(#f26a1daoytqu4)" points="45.5,282.4457,197.5,282.4457,209.5,294.4457,197.5,306.4457,45.5,306.4457,33.5,294.4457,45.5,282.4457" style="stroke:#A80036;stroke-width:1.5;"/><text fill="#000000" font-family="sans-serif" font-size="11" lengthAdjust="spacing" textLength="17" x="125.5" y="318.2046">yes</text><text fill="#000000" font-family="sans-serif" font-size="11" lengthAdjust="spacing" textLength="152" x="45.5" y="298.7136">Current state has exit action?</text><text fill="#000000" font-family="sans-serif" font-size="11" lengthAdjust="spacing" textLength="14" x="209.5" y="291.2227">no</text><polygon fill="#FEFECE" filter="url(#f26a1daoytqu4)" points="121.5,388.2807,133.5,400.2807,121.5,412.2807,109.5,400.2807,121.5,388.2807" style="stroke:#A80036;stroke-width:1.5;"/><rect fill="#FEFECE" filter="url(#f26a1daoytqu4)" height="36.3441" rx="12.5" ry="12.5" style="stroke:#A80036;stroke-width:1.5;" width="166" x="38.5" y="481.7717"/><text fill="#000000" font-family="sans-serif" font-size="12" lengthAdjust="spacing" textLength="146" x="48.5" y="504.5998">Execute transition's action</text><polygon fill="#FEFECE" filter="url(#f26a1daoytqu4)" points="64.5,432.2807,178.5,432.2807,190.5,444.2807,178.5,456.2807,64.5,456.2807,52.5,444.2807,64.5,432.2807" style="stroke:#A80036;stroke-width:1.5;"/><text fill="#000000" font-family="sans-serif" font-size="11" lengthAdjust="spacing" textLength="17" x="125.5" y="468.0396">yes</text><text fill="#000000" font-family="sans-serif" font-size="11" lengthAdjust="spacing" textLength="114" x="64.5" y="448.5487">Transition has action?</text><text fill="#000000" font-family="sans-serif" font-size="11" lengthAdjust="spacing" textLength="14" x="190.5" y="441.0577">no</text><polygon fill="#FEFECE" filter="url(#f26a1daoytqu4)" points="121.5,538.1158,133.5,550.1158,121.5,562.1158,109.5,550.1158,121.5,538.1158" style="stroke:#A80036;stroke-width:1.5;"/><rect fill="#FEFECE" filter="url(#f26a1daoytqu4)" height="36.3441" rx="12.5" ry="12.5" style="stroke:#A80036;stroke-width:1.5;" width="200" x="21.5" y="631.6067"/><text fill="#000000" font-family="sans-serif" font-size="12" lengthAdjust="spacing" textLength="180" x="31.5" y="654.4348">Execute next state's entry action</text><polygon fill="#FEFECE" filter="url(#f26a1daoytqu4)" points="49.5,582.1158,193.5,582.1158,205.5,594.1158,193.5,606.1158,49.5,606.1158,37.5,594.1158,49.5,582.1158" style="stroke:#A80036;stroke-width:1.5;"/><text fill="#000000" font-family="sans-serif" font-size="11" lengthAdjust="spacing" textLength="17" x="125.5" y="617.8747">yes</text><text fill="#000000" font-family="sans-serif" font-size="11" lengthAdjust="spacing" textLength="144" x="49.5" y="598.3837">Next state has entry action?</text><text fill="#000000" font-family="sans-serif" font-size="11" lengthAdjust="spacing" textLength="14" x="205.5" y="590.8928">no</text><polygon fill="#FEFECE" filter="url(#f26a1daoytqu4)" points="121.5,687.9508,133.5,699.9508,121.5,711.9508,109.5,699.9508,121.5,687.9508" style="stroke:#A80036;stroke-width:1.5;"/><rect fill="#FEFECE" filter="url(#f26a1daoytqu4)" height="36.3441" rx="12.5" ry="12.5" style="stroke:#A80036;stroke-width:1.5;" width="187" x="28" y="731.9508"/><text fill="#000000" font-family="sans-serif" font-size="12" lengthAdjust="spacing" textLength="167" x="38" y="754.7789">Set next state as current state</text><ellipse cx="121.5" cy="799.295" fill="#FFFFFF" filter="url(#f26a1daoytqu4)" rx="11" ry="11" style="stroke:#000000;stroke-width:1.0;"/><ellipse cx="121.5" cy="799.295" fill="#000000" rx="6" ry="6" style="stroke:#7F7F7F;stroke-width:1.0;"/><line style="stroke:#A80036;stroke-width:1.5;" x1="121.5" x2="121.5" y1="98.2049" y2="131.4638"/><polygon fill="#A80036" points="117.5,121.4638,121.5,131.4638,125.5,121.4638,121.5,125.4638" style="stroke:#A80036;stroke-width:1.0;"/><line style="stroke:#A80036;stroke-width:1.5;" x1="223" x2="248" y1="86.2049" y2="86.2049"/><polygon fill="#A80036" points="238,82.2049,248,86.2049,238,90.2049,242,86.2049" style="stroke:#A80036;stroke-width:1.0;"/><line style="stroke:#A80036;stroke-width:1.5;" x1="121.5" x2="121.5" y1="30" y2="74.2049"/><polygon fill="#A80036" points="117.5,64.2049,121.5,74.2049,125.5,64.2049,121.5,68.2049" style="stroke:#A80036;stroke-width:1.0;"/><text fill="#000000" font-family="sans-serif" font-size="11" lengthAdjust="spacing" textLength="76" x="125.5" y="53.4819">Event received</text><line style="stroke:#A80036;stroke-width:1.5;" x1="121.5" x2="121.5" y1="204.9547" y2="238.4457"/><polygon fill="#A80036" points="117.5,228.4457,121.5,238.4457,125.5,228.4457,121.5,232.4457" style="stroke:#A80036;stroke-width:1.0;"/><line style="stroke:#A80036;stroke-width:1.5;" x1="202" x2="227" y1="192.9547" y2="192.9547"/><polygon fill="#A80036" points="217,188.9547,227,192.9547,217,196.9547,221,192.9547" style="stroke:#A80036;stroke-width:1.0;"/><line style="stroke:#A80036;stroke-width:1.5;" x1="121.5" x2="121.5" y1="155.4638" y2="180.9547"/><polygon fill="#A80036" points="117.5,170.9547,121.5,180.9547,125.5,170.9547,121.5,174.9547" style="stroke:#A80036;stroke-width:1.0;"/><line style="stroke:#A80036;stroke-width:1.5;" x1="217" x2="271" y1="143.4638" y2="143.4638"/><polygon fill="#A80036" points="267,208.4457,271,218.4457,275,208.4457,271,212.4457" style="stroke:#A80036;stroke-width:1.5;"/><line style="stroke:#A80036;stroke-width:1.5;" x1="271" x2="271" y1="143.4638" y2="250.4457"/><line style="stroke:#A80036;stroke-width:1.5;" x1="271" x2="133.5" y1="250.4457" y2="250.4457"/><polygon fill="#A80036" points="143.5,246.4457,133.5,250.4457,143.5,254.4457,139.5,250.4457" style="stroke:#A80036;stroke-width:1.0;"/><line style="stroke:#A80036;stroke-width:1.5;" x1="121.5" x2="121.5" y1="306.4457" y2="331.9366"/><polygon fill="#A80036" points="117.5,321.9366,121.5,331.9366,125.5,321.9366,121.5,325.9366" style="stroke:#A80036;stroke-width:1.0;"/><line style="stroke:#A80036;stroke-width:1.5;" x1="209.5" x2="235.5" y1="294.4457" y2="294.4457"/><polygon fill="#A80036" points="231.5,340.1087,235.5,350.1087,239.5,340.1087,235.5,344.1087" style="stroke:#A80036;stroke-width:1.5;"/><line style="stroke:#A80036;stroke-width:1.5;" x1="235.5" x2="235.5" y1="294.4457" y2="400.2807"/><line style="stroke:#A80036;stroke-width:1.5;" x1="235.5" x2="133.5" y1="400.2807" y2="400.2807"/><polygon fill="#A80036" points="143.5,396.2807,133.5,400.2807,143.5,404.2807,139.5,400.2807" style="stroke:#A80036;stroke-width:1.0;"/><line style="stroke:#A80036;stroke-width:1.5;" x1="121.5" x2="121.5" y1="368.2807" y2="388.2807"/><polygon fill="#A80036" points="117.5,378.2807,121.5,388.2807,125.5,378.2807,121.5,382.2807" style="stroke:#A80036;stroke-width:1.0;"/><line style="stroke:#A80036;stroke-width:1.5;" x1="121.5" x2="121.5" y1="262.4457" y2="282.4457"/><polygon fill="#A80036" points="117.5,272.4457,121.5,282.4457,125.5,272.4457,121.5,276.4457" style="stroke:#A80036;stroke-width:1.0;"/><line style="stroke:#A80036;stroke-width:1.5;" x1="121.5" x2="121.5" y1="456.2807" y2="481.7717"/><polygon fill="#A80036" points="117.5,471.7717,121.5,481.7717,125.5,471.7717,121.5,475.7717" style="stroke:#A80036;stroke-width:1.0;"/><line style="stroke:#A80036;stroke-width:1.5;" x1="190.5" x2="214.5" y1="444.2807" y2="444.2807"/><polygon fill="#A80036" points="210.5,489.9437,214.5,499.9437,218.5,489.9437,214.5,493.9437" style="stroke:#A80036;stroke-width:1.5;"/><line style="stroke:#A80036;stroke-width:1.5;" x1="214.5" x2="214.5" y1="444.2807" y2="550.1158"/><line style="stroke:#A80036;stroke-width:1.5;" x1="214.5" x2="133.5" y1="550.1158" y2="550.1158"/><polygon fill="#A80036" points="143.5,546.1158,133.5,550.1158,143.5,554.1158,139.5,550.1158" style="stroke:#A80036;stroke-width:1.0;"/><line style="stroke:#A80036;stroke-width:1.5;" x1="121.5" x2="121.5" y1="518.1158" y2="538.1158"/><polygon fill="#A80036" points="117.5,528.1158,121.5,538.1158,125.5,528.1158,121.5,532.1158" style="stroke:#A80036;stroke-width:1.0;"/><line style="stroke:#A80036;stroke-width:1.5;" x1="121.5" x2="121.5" y1="412.2807" y2="432.2807"/><polygon fill="#A80036" points="117.5,422.2807,121.5,432.2807,125.5,422.2807,121.5,426.2807" style="stroke:#A80036;stroke-width:1.0;"/><line style="stroke:#A80036;stroke-width:1.5;" x1="121.5" x2="121.5" y1="606.1158" y2="631.6067"/><polygon fill="#A80036" points="117.5,621.6067,121.5,631.6067,125.5,621.6067,121.5,625.6067" style="stroke:#A80036;stroke-width:1.0;"/><line style="stroke:#A80036;stroke-width:1.5;" x1="205.5" x2="231.5" y1="594.1158" y2="594.1158"/><polygon fill="#A80036" points="227.5,639.7788,231.5,649.7788,235.5,639.7788,231.5,643.7788" style="stroke:#A80036;stroke-width:1.5;"/><line style="stroke:#A80036;stroke-width:1.5;" x1="231.5" x2="231.5" y1="594.1158" y2="699.9508"/><line style="stroke:#A80036;stroke-width:1.5;" x1="231.5" x2="133.5" y1="699.9508" y2="699.9508"/><polygon fill="#A80036" points="143.5,695.9508,133.5,699.9508,143.5,703.9508,139.5,699.9508" style="stroke:#A80036;stroke-width:1.0;"/><line style="stroke:#A80036;stroke-width:1.5;" x1="121.5" x2="121.5" y1="667.9508" y2="687.9508"/><polygon fill="#A80036" points="117.5,677.9508,121.5,687.9508,125.5,677.9508,121.5,681.9508" style="stroke:#A80036;stroke-width:1.0;"/><line style="stroke:#A80036;stroke-width:1.5;" x1="121.5" x2="121.5" y1="562.1158" y2="582.1158"/><polygon fill="#A80036" points="117.5,572.1158,121.5,582.1158,125.5,572.1158,121.5,576.1158" style="stroke:#A80036;stroke-width:1.0;"/><line style="stroke:#A80036;stroke-width:1.5;" x1="121.5" x2="121.5" y1="711.9508" y2="731.9508"/><polygon fill="#A80036" points="117.5,721.9508,121.5,731.9508,125.5,721.9508,121.5,725.9508" style="stroke:#A80036;stroke-width:1.0;"/><line style="stroke:#A80036;stroke-width:1.5;" x1="121.5" x2="121.5" y1="768.295" y2="788.295"/><polygon fill="#A80036" points="117.5,778.295,121.5,788.295,125.5,778.295,121.5,782.295" style="stroke:#A80036;stroke-width:1.0;"/><!--MD5=[370ad27bc3e6f3da93d7d5fbcf5025a7]
@startuml StateTransition
start

-> Event received;

if (State has transition for this event?) then (no)
     stop
else (yes)
endif

if (Transition has guard condition?) then (yes)
     if (Guard condition satisfied?) then (no)
          stop
     else (yes)
     endif
else (no)
endif

if (Current state has exit action?) then (yes)
     :Execute current state's exit action;
else (no)
endif

if (Transition has action?) then (yes)
     :Execute transition's action;
else (no)
endif

if (Next state has entry action?) then (yes)
     :Execute next state's entry action;
else (no)
endif

:Set next state as current state;

stop

@enduml

PlantUML version 1.2021.00(Sun Jan 10 11:25:05 CET 2021)
(GPL source distribution)
Java Runtime: OpenJDK Runtime Environment
JVM: OpenJDK 64-Bit Server VM
Default Encoding: UTF-8
Language: en
Country: US
--></g></svg>