<?xml version="1.0" encoding="UTF-8" standalone="no"?><svg xmlns="http://www.w3.org/2000/svg" xmlns:xlink="http://www.w3.org/1999/xlink" contentScriptType="application/ecmascript" contentStyleType="text/css" height="247px" preserveAspectRatio="none" style="width:633px;height:247px;background:#FFFFFF;" version="1.1" viewBox="0 0 633 247" width="633px" zoomAndPan="magnify"><defs><filter height="300%" id="fxqyqgh3l5iqk" width="300%" x="-1" y="-1"><feGaussianBlur result="blurOut" stdDeviation="2.0"/><feColorMatrix in="blurOut" result="blurOut2" type="matrix" values="0 0 0 0 0 0 0 0 0 0 0 0 0 0 0 0 0 0 .4 0"/><feOffset dx="4.0" dy="4.0" in="blurOut2" result="blurOut3"/><feBlend in="SourceGraphic" in2="blurOut3" mode="normal"/></filter></defs><g><ellipse cx="324.5" cy="20" fill="#000000" filter="url(#fxqyqgh3l5iqk)" rx="10" ry="10" style="stroke:none;stroke-width:1.0;"/><polygon fill="#FEFECE" filter="url(#fxqyqgh3l5iqk)" points="32,74.9819,186,74.9819,198,86.9819,186,98.9819,32,98.9819,20,86.9819,32,74.9819" style="stroke:#A80036;stroke-width:1.5;"/><text fill="#000000" font-family="sans-serif" font-size="11" lengthAdjust="spacing" textLength="17" x="113" y="110.7408">yes</text><text fill="#000000" font-family="sans-serif" font-size="11" lengthAdjust="spacing" textLength="154" x="32" y="91.2499">Internal transition triggered?</text><rect fill="#FEFECE" filter="url(#fxqyqgh3l5iqk)" height="36.3441" rx="12.5" ry="12.5" style="stroke:#A80036;stroke-width:1.5;" width="166" x="26" y="132.2408"/><text fill="#000000" font-family="sans-serif" font-size="12" lengthAdjust="spacing" textLength="146" x="36" y="155.0689">Execute internal transition</text><polygon fill="#FEFECE" filter="url(#fxqyqgh3l5iqk)" points="230,74.9819,368,74.9819,380,86.9819,368,98.9819,230,98.9819,218,86.9819,230,74.9819" style="stroke:#A80036;stroke-width:1.5;"/><text fill="#000000" font-family="sans-serif" font-size="11" lengthAdjust="spacing" textLength="17" x="303" y="110.7408">yes</text><text fill="#000000" font-family="sans-serif" font-size="11" lengthAdjust="spacing" textLength="138" x="230" y="91.2499">State transition triggered?</text><rect fill="#FEFECE" filter="url(#fxqyqgh3l5iqk)" height="36.3441" rx="12.5" ry="12.5" style="stroke:#A80036;stroke-width:1.5;" width="151" x="223.5" y="132.2408"/><text fill="#000000" font-family="sans-serif" font-size="12" lengthAdjust="spacing" textLength="131" x="233.5" y="155.0689">Execute state transition</text><polygon fill="#FEFECE" filter="url(#fxqyqgh3l5iqk)" points="412,74.9819,567,74.9819,579,86.9819,567,98.9819,412,98.9819,400,86.9819,412,74.9819" style="stroke:#A80036;stroke-width:1.5;"/><text fill="#000000" font-family="sans-serif" font-size="11" lengthAdjust="spacing" textLength="17" x="493.5" y="110.7408">yes</text><text fill="#000000" font-family="sans-serif" font-size="11" lengthAdjust="spacing" textLength="155" x="412" y="91.2499">State has a default transition?</text><text fill="#000000" font-family="sans-serif" font-size="11" lengthAdjust="spacing" textLength="14" x="579" y="83.7589">no</text><rect fill="#FEFECE" filter="url(#fxqyqgh3l5iqk)" height="36.3441" rx="12.5" ry="12.5" style="stroke:#A80036;stroke-width:1.5;" width="162" x="408.5" y="132.2408"/><text fill="#000000" font-family="sans-serif" font-size="12" lengthAdjust="spacing" textLength="142" x="418.5" y="155.0689">Execute default transition</text><ellipse cx="324.5" cy="219.5849" fill="#FFFFFF" filter="url(#fxqyqgh3l5iqk)" rx="11" ry="11" style="stroke:#000000;stroke-width:1.0;"/><ellipse cx="324.5" cy="219.5849" fill="#000000" rx="6" ry="6" style="stroke:#7F7F7F;stroke-width:1.0;"/><line style="stroke:#A80036;stroke-width:1.5;" x1="109" x2="109" y1="98.9819" y2="132.2408"/><polygon fill="#A80036" points="105,122.2408,109,132.2408,113,122.2408,109,126.2408" style="stroke:#A80036;stroke-width:1.0;"/><line style="stroke:#A80036;stroke-width:1.5;" x1="109" x2="109" y1="168.5849" y2="188.5849"/><polygon fill="#A80036" points="105,178.5849,109,188.5849,113,178.5849,109,182.5849" style="stroke:#A80036;stroke-width:1.0;"/><line style="stroke:#A80036;stroke-width:1.5;" x1="299" x2="299" y1="98.9819" y2="132.2408"/><polygon fill="#A80036" points="295,122.2408,299,132.2408,303,122.2408,299,126.2408" style="stroke:#A80036;stroke-width:1.0;"/><line style="stroke:#A80036;stroke-width:1.5;" x1="299" x2="299" y1="168.5849" y2="188.5849"/><polygon fill="#A80036" points="295,178.5849,299,188.5849,303,178.5849,299,182.5849" style="stroke:#A80036;stroke-width:1.0;"/><line style="stroke:#A80036;stroke-width:1.5;" x1="489.5" x2="489.5" y1="98.9819" y2="132.2408"/><polygon fill="#A80036" points="485.5,122.2408,489.5,132.2408,493.5,122.2408,489.5,126.2408" style="stroke:#A80036;stroke-width:1.0;"/><line style="stroke:#A80036;stroke-width:1.5;" x1="489.5" x2="489.5" y1="168.5849" y2="188.5849"/><polygon fill="#A80036" points="485.5,178.5849,489.5,188.5849,493.5,178.5849,489.5,182.5849" style="stroke:#A80036;stroke-width:1.0;"/><line style="stroke:#A80036;stroke-width:1.5;" x1="198" x2="218" y1="86.9819" y2="86.9819"/><polygon fill="#A80036" points="208,82.9819,218,86.9819,208,90.9819,212,86.9819" style="stroke:#A80036;stroke-width:1.0;"/><line style="stroke:#A80036;stroke-width:1.5;" x1="380" x2="400" y1="86.9819" y2="86.9819"/><polygon fill="#A80036" points="390,82.9819,400,86.9819,390,90.9819,394,86.9819" style="stroke:#A80036;stroke-width:1.0;"/><line style="stroke:#A80036;stroke-width:1.5;" x1="324.5" x2="109" y1="59.9819" y2="59.9819"/><line style="stroke:#A80036;stroke-width:1.5;" x1="109" x2="109" y1="59.9819" y2="74.9819"/><polygon fill="#A80036" points="105,64.9819,109,74.9819,113,64.9819,109,68.9819" style="stroke:#A80036;stroke-width:1.0;"/><line style="stroke:#A80036;stroke-width:1.5;" x1="579" x2="607" y1="86.9819" y2="86.9819"/><line style="stroke:#A80036;stroke-width:1.5;" x1="607" x2="607" y1="86.9819" y2="188.5849"/><polygon fill="#A80036" points="603,178.5849,607,188.5849,611,178.5849,607,182.5849" style="stroke:#A80036;stroke-width:1.0;"/><line style="stroke:#A80036;stroke-width:1.5;" x1="109" x2="607" y1="188.5849" y2="188.5849"/><line style="stroke:#A80036;stroke-width:1.5;" x1="324.5" x2="324.5" y1="30" y2="59.9819"/><text fill="#000000" font-family="sans-serif" font-size="11" lengthAdjust="spacing" textLength="76" x="328.5" y="53.4819">Event received</text><line style="stroke:#A80036;stroke-width:1.5;" x1="324.5" x2="324.5" y1="188.5849" y2="208.5849"/><polygon fill="#A80036" points="320.5,198.5849,324.5,208.5849,328.5,198.5849,324.5,202.5849" style="stroke:#A80036;stroke-width:1.0;"/><!--MD5=[f8a54570f4a0a80c7a82c41e41f377a0]
@startuml TransitionWorkflow
start

-> Event received;

if (Internal transition triggered?) then (yes)
     :Execute internal transition;
elseif (State transition triggered?) then (yes)
     :Execute state transition;
elseif (State has a default transition?) then (yes)
     :Execute default transition;
else (no)
endif

stop
@enduml

PlantUML version 1.2021.7(Sun May 23 14:40:07 CEST 2021)
(GPL source distribution)
Java Runtime: OpenJDK Runtime Environment
JVM: OpenJDK 64-Bit Server VM
Default Encoding: UTF-8
Language: en
Country: US
--></g></svg>