<?xml version="1.0" encoding="UTF-8" standalone="no"?><svg xmlns="http://www.w3.org/2000/svg" xmlns:xlink="http://www.w3.org/1999/xlink" contentScriptType="application/ecmascript" contentStyleType="text/css" height="943px" preserveAspectRatio="none" style="width:861px;height:943px;" version="1.1" viewBox="0 0 861 943" width="861px" zoomAndPan="magnify"><defs><filter height="300%" id="f1rptu1p1s67rk" width="300%" x="-1" y="-1"><feGaussianBlur result="blurOut" stdDeviation="2.0"/><feColorMatrix in="blurOut" result="blurOut2" type="matrix" values="0 0 0 0 0 0 0 0 0 0 0 0 0 0 0 0 0 0 .4 0"/><feOffset dx="4.0" dy="4.0" in="blurOut2" result="blurOut3"/><feBlend in="SourceGraphic" in2="blurOut3" mode="normal"/></filter></defs><g><!--MD5=[3626c233e602113c8cf5977cfac9c02f]
class StateMachine--><rect codeLine="12" fill="#FEFECE" filter="url(#f1rptu1p1s67rk)" height="542.4023" id="StateMachine" style="stroke:#A80036;stroke-width:1.5;" width="352" x="433.5" y="7"/><ellipse cx="566.75" cy="23" fill="#ADD1B2" rx="11" ry="11" style="stroke:#A80036;stroke-width:1.0;"/><path d="M566.2188,29.9219 Q564.4688,29.9219 563.3281,29.1875 Q562.2031,28.4375 561.6406,27.0938 Q561.0938,25.7344 561.0938,23.9375 Q561.0938,21.9063 561.75,20.4531 Q562.4063,19 563.6875,18.2188 Q564.9688,17.4375 566.8438,17.4375 Q567.7344,17.4375 568.4063,17.625 Q569.0781,17.7969 569.7656,18.1406 L568.9531,20.1563 Q568.3281,19.8438 567.7813,19.7188 Q567.25,19.5938 566.7656,19.5938 Q565.5938,19.5938 564.8906,20.125 Q564.1875,20.6563 563.8906,21.6094 Q563.5938,22.5625 563.5938,23.8281 Q563.5938,25.8438 564.3125,26.8125 Q565.0313,27.7656 566.625,27.7656 Q567.2188,27.7656 567.8438,27.6094 Q568.4688,27.4531 569.2969,27.0781 L569.2969,29.2969 Q568.5625,29.6094 567.7656,29.7656 Q566.9844,29.9219 566.2188,29.9219 Z " fill="#000000"/><text fill="#000000" font-family="sans-serif" font-size="12" lengthAdjust="spacing" textLength="77" x="587.25" y="27.656">StateMachine</text><line style="stroke:#A80036;stroke-width:1.5;" x1="434.5" x2="784.5" y1="39" y2="39"/><rect fill="none" height="6" style="stroke:#C82930;stroke-width:1.0;" width="6" x="441.5" y="47"/><text fill="#000000" font-family="sans-serif" font-size="11" lengthAdjust="spacing" textLength="30" x="453.5" y="54.7589">states</text><rect fill="none" height="6" style="stroke:#C82930;stroke-width:1.0;" width="6" x="441.5" y="61.9819"/><text fill="#000000" font-family="sans-serif" font-size="11" lengthAdjust="spacing" textLength="82" x="453.5" y="69.7408">initialTransition</text><rect fill="none" height="6" style="stroke:#C82930;stroke-width:1.0;" width="6" x="441.5" y="76.9638"/><text fill="#000000" font-family="sans-serif" font-size="11" lengthAdjust="spacing" textLength="84" x="453.5" y="84.7227">validationStatus</text><rect fill="none" height="6" style="stroke:#C82930;stroke-width:1.0;" width="6" x="441.5" y="91.9457"/><text fill="#000000" font-family="sans-serif" font-size="11" lengthAdjust="spacing" textLength="37" x="453.5" y="99.7046">started</text><rect fill="none" height="6" style="stroke:#C82930;stroke-width:1.0;" width="6" x="441.5" y="106.9276"/><text fill="#000000" font-family="sans-serif" font-size="11" lengthAdjust="spacing" textLength="65" x="453.5" y="114.6865">currentState</text><rect fill="none" height="6" style="stroke:#C82930;stroke-width:1.0;" width="6" x="441.5" y="121.9094"/><text fill="#000000" font-family="sans-serif" font-size="11" lengthAdjust="spacing" textLength="64" x="453.5" y="129.6684">eventQueue</text><rect fill="none" height="6" style="stroke:#C82930;stroke-width:1.0;" width="6" x="441.5" y="136.8913"/><text fill="#000000" font-family="sans-serif" font-size="11" lengthAdjust="spacing" textLength="52" x="453.5" y="144.6502">finalEvent</text><line style="stroke:#A80036;stroke-width:1.5;" x1="434.5" x2="784.5" y1="151.8732" y2="151.8732"/><ellipse cx="444.5" cy="162.8732" fill="#84BE84" rx="3" ry="3" style="stroke:#038048;stroke-width:1.0;"/><text fill="#000000" font-family="sans-serif" font-size="11" lengthAdjust="spacing" textLength="90" x="453.5" y="167.6321">validationStatus()</text><ellipse cx="444.5" cy="177.8551" fill="#84BE84" rx="3" ry="3" style="stroke:#038048;stroke-width:1.0;"/><text fill="#000000" font-family="sans-serif" font-size="11" lengthAdjust="spacing" textLength="47" x="453.5" y="182.614">validate()</text><ellipse cx="444.5" cy="192.837" fill="#84BE84" rx="3" ry="3" style="stroke:#038048;stroke-width:1.0;"/><text fill="#000000" font-family="sans-serif" font-size="11" lengthAdjust="spacing" textLength="52" x="453.5" y="197.5959">isStarted()</text><ellipse cx="444.5" cy="207.8189" fill="#84BE84" rx="3" ry="3" style="stroke:#038048;stroke-width:1.0;"/><text fill="#000000" font-family="sans-serif" font-size="11" lengthAdjust="spacing" textLength="59" x="453.5" y="212.5778">start(event)</text><ellipse cx="444.5" cy="222.8008" fill="#84BE84" rx="3" ry="3" style="stroke:#038048;stroke-width:1.0;"/><text fill="#000000" font-family="sans-serif" font-size="11" lengthAdjust="spacing" textLength="29" x="453.5" y="227.5597">stop()</text><ellipse cx="444.5" cy="237.7827" fill="#84BE84" rx="3" ry="3" style="stroke:#038048;stroke-width:1.0;"/><text fill="#000000" font-family="sans-serif" font-size="11" lengthAdjust="spacing" textLength="71" x="453.5" y="242.5416">currentState()</text><ellipse cx="444.5" cy="252.7645" fill="#84BE84" rx="3" ry="3" style="stroke:#038048;stroke-width:1.0;"/><text fill="#000000" font-family="sans-serif" font-size="11" lengthAdjust="spacing" textLength="99" x="453.5" y="257.5235">finalStateReached()</text><ellipse cx="444.5" cy="267.7464" fill="#84BE84" rx="3" ry="3" style="stroke:#038048;stroke-width:1.0;"/><text fill="#000000" font-family="sans-serif" font-size="11" lengthAdjust="spacing" textLength="78" x="453.5" y="272.5053">hasFinalEvent()</text><ellipse cx="444.5" cy="282.7283" fill="#84BE84" rx="3" ry="3" style="stroke:#038048;stroke-width:1.0;"/><text fill="#000000" font-family="sans-serif" font-size="11" lengthAdjust="spacing" textLength="82" x="453.5" y="287.4872">takeFinalEvent()</text><ellipse cx="444.5" cy="297.7102" fill="#84BE84" rx="3" ry="3" style="stroke:#038048;stroke-width:1.0;"/><text fill="#000000" font-family="sans-serif" font-size="11" lengthAdjust="spacing" textLength="102" x="453.5" y="302.4691">hasPendingEvents()</text><ellipse cx="444.5" cy="312.6921" fill="#84BE84" rx="3" ry="3" style="stroke:#038048;stroke-width:1.0;"/><text fill="#000000" font-family="sans-serif" font-size="11" lengthAdjust="spacing" textLength="126" x="453.5" y="317.451">addEventToFront(event)</text><ellipse cx="444.5" cy="327.674" fill="#84BE84" rx="3" ry="3" style="stroke:#038048;stroke-width:1.0;"/><text fill="#000000" font-family="sans-serif" font-size="11" lengthAdjust="spacing" textLength="121" x="453.5" y="332.4329">addEventToBack(event)</text><ellipse cx="444.5" cy="342.6559" fill="#84BE84" rx="3" ry="3" style="stroke:#038048;stroke-width:1.0;"/><text fill="#000000" font-family="sans-serif" font-size="11" lengthAdjust="spacing" textLength="99" x="453.5" y="347.4148">processNextEvent()</text><ellipse cx="444.5" cy="357.6378" fill="#84BE84" rx="3" ry="3" style="stroke:#038048;stroke-width:1.0;"/><text fill="#000000" font-family="sans-serif" font-size="11" lengthAdjust="spacing" textLength="206" x="453.5" y="362.3967">addState(name, entryAction, exitAction)</text><ellipse cx="444.5" cy="372.6196" fill="#84BE84" rx="3" ry="3" style="stroke:#038048;stroke-width:1.0;"/><text fill="#000000" font-family="sans-serif" font-size="11" lengthAdjust="spacing" textLength="61" x="453.5" y="377.3786">initialState()</text><ellipse cx="444.5" cy="387.6015" fill="#84BE84" rx="3" ry="3" style="stroke:#038048;stroke-width:1.0;"/><text fill="#000000" font-family="sans-serif" font-size="11" lengthAdjust="spacing" textLength="197" x="453.5" y="392.3604">setInitialTransition(initialState, action)</text><ellipse cx="444.5" cy="402.5834" fill="#84BE84" rx="3" ry="3" style="stroke:#038048;stroke-width:1.0;"/><text fill="#000000" font-family="sans-serif" font-size="11" lengthAdjust="spacing" textLength="319" x="453.5" y="407.3423">addStateTransition(fromState, trigger, toState, guard, action)</text><ellipse cx="444.5" cy="417.5653" fill="#84BE84" rx="3" ry="3" style="stroke:#038048;stroke-width:1.0;"/><text fill="#000000" font-family="sans-serif" font-size="11" lengthAdjust="spacing" textLength="265" x="453.5" y="422.3242">addInternalTransition(state, trigger, guard, action)</text><ellipse cx="444.5" cy="432.5472" fill="#84BE84" rx="3" ry="3" style="stroke:#038048;stroke-width:1.0;"/><text fill="#000000" font-family="sans-serif" font-size="11" lengthAdjust="spacing" textLength="326" x="453.5" y="437.3061">setDefaultTransition(fromState, trigger, toState, guard, action)</text><ellipse cx="444.5" cy="447.5291" fill="#84BE84" rx="3" ry="3" style="stroke:#038048;stroke-width:1.0;"/><text fill="#000000" font-family="sans-serif" font-size="11" lengthAdjust="spacing" textLength="256" x="453.5" y="452.288">setDefaultTransition(state, trigger, guard, action)</text><rect fill="#F24D5C" height="6" style="stroke:#C82930;stroke-width:1.0;" width="6" x="441.5" y="459.511"/><text fill="#000000" font-family="sans-serif" font-size="11" lengthAdjust="spacing" textLength="185" x="453.5" y="467.2699">traverseStates(state, statesReached)</text><rect fill="#F24D5C" height="6" style="stroke:#C82930;stroke-width:1.0;" width="6" x="441.5" y="474.4929"/><text fill="#000000" font-family="sans-serif" font-size="11" lengthAdjust="spacing" textLength="158" x="453.5" y="482.2518">executeInitialTransition(event)</text><rect fill="#F24D5C" height="6" style="stroke:#C82930;stroke-width:1.0;" width="6" x="441.5" y="489.4747"/><text fill="#000000" font-family="sans-serif" font-size="11" lengthAdjust="spacing" textLength="235" x="453.5" y="497.2337">executeStateTransition(transitionData, event)</text><rect fill="#F24D5C" height="6" style="stroke:#C82930;stroke-width:1.0;" width="6" x="441.5" y="504.4566"/><text fill="#000000" font-family="sans-serif" font-size="11" lengthAdjust="spacing" textLength="251" x="453.5" y="512.2155">executeInternalTransition(transitionData, event)</text><rect fill="#F24D5C" height="6" style="stroke:#C82930;stroke-width:1.0;" width="6" x="441.5" y="519.4385"/><text fill="#000000" font-family="sans-serif" font-size="11" lengthAdjust="spacing" textLength="273" x="453.5" y="527.1974">executeDefaultStateTransition(transitionData, event)</text><rect fill="#F24D5C" height="6" style="stroke:#C82930;stroke-width:1.0;" width="6" x="441.5" y="534.4204"/><text fill="#000000" font-family="sans-serif" font-size="11" lengthAdjust="spacing" textLength="289" x="453.5" y="542.1793">executeDefaultInternalTransition(transitionData, event)</text><!--MD5=[60d6b92408f98aed8df94d5c6e04aa63]
class State--><rect codeLine="49" fill="#FEFECE" filter="url(#f1rptu1p1s67rk)" height="152.8732" id="State" style="stroke:#A80036;stroke-width:1.5;" width="158" x="326.5" y="609"/><ellipse cx="386.75" cy="625" fill="#ADD1B2" rx="11" ry="11" style="stroke:#A80036;stroke-width:1.0;"/><path d="M386.2188,631.9219 Q384.4688,631.9219 383.3281,631.1875 Q382.2031,630.4375 381.6406,629.0938 Q381.0938,627.7344 381.0938,625.9375 Q381.0938,623.9063 381.75,622.4531 Q382.4063,621 383.6875,620.2188 Q384.9688,619.4375 386.8438,619.4375 Q387.7344,619.4375 388.4063,619.625 Q389.0781,619.7969 389.7656,620.1406 L388.9531,622.1563 Q388.3281,621.8438 387.7813,621.7188 Q387.25,621.5938 386.7656,621.5938 Q385.5938,621.5938 384.8906,622.125 Q384.1875,622.6563 383.8906,623.6094 Q383.5938,624.5625 383.5938,625.8281 Q383.5938,627.8438 384.3125,628.8125 Q385.0313,629.7656 386.625,629.7656 Q387.2188,629.7656 387.8438,629.6094 Q388.4688,629.4531 389.2969,629.0781 L389.2969,631.2969 Q388.5625,631.6094 387.7656,631.7656 Q386.9844,631.9219 386.2188,631.9219 Z " fill="#000000"/><text fill="#000000" font-family="sans-serif" font-size="12" lengthAdjust="spacing" textLength="29" x="407.25" y="629.656">State</text><line style="stroke:#A80036;stroke-width:1.5;" x1="327.5" x2="483.5" y1="641" y2="641"/><ellipse cx="337.5" cy="652" fill="none" rx="3" ry="3" style="stroke:#038048;stroke-width:1.0;"/><text fill="#000000" font-family="sans-serif" font-size="11" lengthAdjust="spacing" textLength="29" x="346.5" y="656.7589">name</text><ellipse cx="337.5" cy="666.9819" fill="none" rx="3" ry="3" style="stroke:#038048;stroke-width:1.0;"/><text fill="#000000" font-family="sans-serif" font-size="11" lengthAdjust="spacing" textLength="61" x="346.5" y="671.7408">entryAction</text><ellipse cx="337.5" cy="681.9638" fill="none" rx="3" ry="3" style="stroke:#038048;stroke-width:1.0;"/><text fill="#000000" font-family="sans-serif" font-size="11" lengthAdjust="spacing" textLength="52" x="346.5" y="686.7227">exitAction</text><ellipse cx="337.5" cy="696.9457" fill="none" rx="3" ry="3" style="stroke:#038048;stroke-width:1.0;"/><text fill="#000000" font-family="sans-serif" font-size="11" lengthAdjust="spacing" textLength="83" x="346.5" y="701.7046">stateTransitions</text><ellipse cx="337.5" cy="711.9276" fill="none" rx="3" ry="3" style="stroke:#038048;stroke-width:1.0;"/><text fill="#000000" font-family="sans-serif" font-size="11" lengthAdjust="spacing" textLength="99" x="346.5" y="716.6865">internalTransitions</text><ellipse cx="337.5" cy="726.9094" fill="none" rx="3" ry="3" style="stroke:#038048;stroke-width:1.0;"/><text fill="#000000" font-family="sans-serif" font-size="11" lengthAdjust="spacing" textLength="116" x="346.5" y="731.6684">defaultStateTransition</text><ellipse cx="337.5" cy="741.8913" fill="none" rx="3" ry="3" style="stroke:#038048;stroke-width:1.0;"/><text fill="#000000" font-family="sans-serif" font-size="11" lengthAdjust="spacing" textLength="132" x="346.5" y="746.6502">defaultInternalTransition</text><line style="stroke:#A80036;stroke-width:1.5;" x1="327.5" x2="483.5" y1="753.8732" y2="753.8732"/><!--MD5=[f2959d41cfb74379be8d5e6d7a13e1ff]
class InitialTransition--><rect codeLine="59" fill="#FEFECE" filter="url(#f1rptu1p1s67rk)" height="77.9638" id="InitialTransition" style="stroke:#A80036;stroke-width:1.5;" width="119" x="550" y="646.5"/><ellipse cx="565" cy="662.5" fill="#ADD1B2" rx="11" ry="11" style="stroke:#A80036;stroke-width:1.0;"/><path d="M564.4688,669.4219 Q562.7188,669.4219 561.5781,668.6875 Q560.4531,667.9375 559.8906,666.5938 Q559.3438,665.2344 559.3438,663.4375 Q559.3438,661.4063 560,659.9531 Q560.6563,658.5 561.9375,657.7188 Q563.2188,656.9375 565.0938,656.9375 Q565.9844,656.9375 566.6563,657.125 Q567.3281,657.2969 568.0156,657.6406 L567.2031,659.6563 Q566.5781,659.3438 566.0313,659.2188 Q565.5,659.0938 565.0156,659.0938 Q563.8438,659.0938 563.1406,659.625 Q562.4375,660.1563 562.1406,661.1094 Q561.8438,662.0625 561.8438,663.3281 Q561.8438,665.3438 562.5625,666.3125 Q563.2813,667.2656 564.875,667.2656 Q565.4688,667.2656 566.0938,667.1094 Q566.7188,666.9531 567.5469,666.5781 L567.5469,668.7969 Q566.8125,669.1094 566.0156,669.2656 Q565.2344,669.4219 564.4688,669.4219 Z " fill="#000000"/><text fill="#000000" font-family="sans-serif" font-size="12" lengthAdjust="spacing" textLength="87" x="579" y="667.156">InitialTransition</text><line style="stroke:#A80036;stroke-width:1.5;" x1="551" x2="668" y1="678.5" y2="678.5"/><ellipse cx="561" cy="689.5" fill="none" rx="3" ry="3" style="stroke:#038048;stroke-width:1.0;"/><text fill="#000000" font-family="sans-serif" font-size="11" lengthAdjust="spacing" textLength="25" x="570" y="694.2589">state</text><ellipse cx="561" cy="704.4819" fill="none" rx="3" ry="3" style="stroke:#038048;stroke-width:1.0;"/><text fill="#000000" font-family="sans-serif" font-size="11" lengthAdjust="spacing" textLength="32" x="570" y="709.2408">action</text><line style="stroke:#A80036;stroke-width:1.5;" x1="551" x2="668" y1="716.4638" y2="716.4638"/><!--MD5=[ac13618b1a974308c1f12eb6c57723dc]
class Event--><rect codeLine="88" fill="#FEFECE" filter="url(#f1rptu1p1s67rk)" height="122.9094" id="Event" style="stroke:#A80036;stroke-width:1.5;" width="105" x="719" y="624"/><ellipse cx="752.9" cy="640" fill="#ADD1B2" rx="11" ry="11" style="stroke:#A80036;stroke-width:1.0;"/><path d="M752.3688,646.9219 Q750.6188,646.9219 749.4781,646.1875 Q748.3531,645.4375 747.7906,644.0938 Q747.2438,642.7344 747.2438,640.9375 Q747.2438,638.9063 747.9,637.4531 Q748.5563,636 749.8375,635.2188 Q751.1188,634.4375 752.9938,634.4375 Q753.8844,634.4375 754.5563,634.625 Q755.2281,634.7969 755.9156,635.1406 L755.1031,637.1563 Q754.4781,636.8438 753.9313,636.7188 Q753.4,636.5938 752.9156,636.5938 Q751.7438,636.5938 751.0406,637.125 Q750.3375,637.6563 750.0406,638.6094 Q749.7438,639.5625 749.7438,640.8281 Q749.7438,642.8438 750.4625,643.8125 Q751.1813,644.7656 752.775,644.7656 Q753.3688,644.7656 753.9938,644.6094 Q754.6188,644.4531 755.4469,644.0781 L755.4469,646.2969 Q754.7125,646.6094 753.9156,646.7656 Q753.1344,646.9219 752.3688,646.9219 Z " fill="#000000"/><text fill="#000000" font-family="sans-serif" font-size="12" lengthAdjust="spacing" textLength="31" x="771.1" y="644.656">Event</text><line style="stroke:#A80036;stroke-width:1.5;" x1="720" x2="823" y1="656" y2="656"/><rect fill="none" height="6" style="stroke:#C82930;stroke-width:1.0;" width="6" x="727" y="664"/><text fill="#000000" font-family="sans-serif" font-size="11" lengthAdjust="spacing" textLength="29" x="739" y="671.7589">name</text><rect fill="none" height="6" style="stroke:#C82930;stroke-width:1.0;" width="6" x="727" y="678.9819"/><text fill="#000000" font-family="sans-serif" font-size="11" lengthAdjust="spacing" textLength="55" x="739" y="686.7408">parameter</text><line style="stroke:#A80036;stroke-width:1.5;" x1="720" x2="823" y1="693.9638" y2="693.9638"/><ellipse cx="730" cy="704.9638" fill="#84BE84" rx="3" ry="3" style="stroke:#038048;stroke-width:1.0;"/><text fill="#000000" font-family="sans-serif" font-size="11" lengthAdjust="spacing" textLength="35" x="739" y="709.7227">name()</text><ellipse cx="730" cy="719.9457" fill="#84BE84" rx="3" ry="3" style="stroke:#038048;stroke-width:1.0;"/><text fill="#000000" font-family="sans-serif" font-size="11" lengthAdjust="spacing" textLength="79" x="739" y="724.7046">hasParameter()</text><ellipse cx="730" cy="734.9276" fill="#84BE84" rx="3" ry="3" style="stroke:#038048;stroke-width:1.0;"/><text fill="#000000" font-family="sans-serif" font-size="11" lengthAdjust="spacing" textLength="61" x="739" y="739.6865">parameter()</text><!--MD5=[c21ba447c96c164cc1ee124342ce6c0a]
class StateTransition--><rect codeLine="64" fill="#FEFECE" filter="url(#f1rptu1p1s67rk)" height="107.9276" id="StateTransition" style="stroke:#A80036;stroke-width:1.5;" width="117" x="7" y="822"/><ellipse cx="22" cy="838" fill="#ADD1B2" rx="11" ry="11" style="stroke:#A80036;stroke-width:1.0;"/><path d="M21.4688,844.9219 Q19.7188,844.9219 18.5781,844.1875 Q17.4531,843.4375 16.8906,842.0938 Q16.3438,840.7344 16.3438,838.9375 Q16.3438,836.9063 17,835.4531 Q17.6563,834 18.9375,833.2188 Q20.2188,832.4375 22.0938,832.4375 Q22.9844,832.4375 23.6563,832.625 Q24.3281,832.7969 25.0156,833.1406 L24.2031,835.1563 Q23.5781,834.8438 23.0313,834.7188 Q22.5,834.5938 22.0156,834.5938 Q20.8438,834.5938 20.1406,835.125 Q19.4375,835.6563 19.1406,836.6094 Q18.8438,837.5625 18.8438,838.8281 Q18.8438,840.8438 19.5625,841.8125 Q20.2813,842.7656 21.875,842.7656 Q22.4688,842.7656 23.0938,842.6094 Q23.7188,842.4531 24.5469,842.0781 L24.5469,844.2969 Q23.8125,844.6094 23.0156,844.7656 Q22.2344,844.9219 21.4688,844.9219 Z " fill="#000000"/><text fill="#000000" font-family="sans-serif" font-size="12" lengthAdjust="spacing" textLength="85" x="36" y="842.656">StateTransition</text><line style="stroke:#A80036;stroke-width:1.5;" x1="8" x2="123" y1="854" y2="854"/><ellipse cx="18" cy="865" fill="none" rx="3" ry="3" style="stroke:#038048;stroke-width:1.0;"/><text fill="#000000" font-family="sans-serif" font-size="11" lengthAdjust="spacing" textLength="37" x="27" y="869.7589">trigger</text><ellipse cx="18" cy="879.9819" fill="none" rx="3" ry="3" style="stroke:#038048;stroke-width:1.0;"/><text fill="#000000" font-family="sans-serif" font-size="11" lengthAdjust="spacing" textLength="25" x="27" y="884.7408">state</text><ellipse cx="18" cy="894.9638" fill="none" rx="3" ry="3" style="stroke:#038048;stroke-width:1.0;"/><text fill="#000000" font-family="sans-serif" font-size="11" lengthAdjust="spacing" textLength="32" x="27" y="899.7227">guard</text><ellipse cx="18" cy="909.9457" fill="none" rx="3" ry="3" style="stroke:#038048;stroke-width:1.0;"/><text fill="#000000" font-family="sans-serif" font-size="11" lengthAdjust="spacing" textLength="32" x="27" y="914.7046">action</text><line style="stroke:#A80036;stroke-width:1.5;" x1="8" x2="123" y1="921.9276" y2="921.9276"/><!--MD5=[5e16239ef230ef4e5970676a7d2e499f]
class InternalTransition--><rect codeLine="71" fill="#FEFECE" filter="url(#f1rptu1p1s67rk)" height="92.9457" id="InternalTransition" style="stroke:#A80036;stroke-width:1.5;" width="132" x="159.5" y="829.5"/><ellipse cx="174.5" cy="845.5" fill="#ADD1B2" rx="11" ry="11" style="stroke:#A80036;stroke-width:1.0;"/><path d="M173.9688,852.4219 Q172.2188,852.4219 171.0781,851.6875 Q169.9531,850.9375 169.3906,849.5938 Q168.8438,848.2344 168.8438,846.4375 Q168.8438,844.4063 169.5,842.9531 Q170.1563,841.5 171.4375,840.7188 Q172.7188,839.9375 174.5938,839.9375 Q175.4844,839.9375 176.1563,840.125 Q176.8281,840.2969 177.5156,840.6406 L176.7031,842.6563 Q176.0781,842.3438 175.5313,842.2188 Q175,842.0938 174.5156,842.0938 Q173.3438,842.0938 172.6406,842.625 Q171.9375,843.1563 171.6406,844.1094 Q171.3438,845.0625 171.3438,846.3281 Q171.3438,848.3438 172.0625,849.3125 Q172.7813,850.2656 174.375,850.2656 Q174.9688,850.2656 175.5938,850.1094 Q176.2188,849.9531 177.0469,849.5781 L177.0469,851.7969 Q176.3125,852.1094 175.5156,852.2656 Q174.7344,852.4219 173.9688,852.4219 Z " fill="#000000"/><text fill="#000000" font-family="sans-serif" font-size="12" lengthAdjust="spacing" textLength="100" x="188.5" y="850.156">InternalTransition</text><line style="stroke:#A80036;stroke-width:1.5;" x1="160.5" x2="290.5" y1="861.5" y2="861.5"/><ellipse cx="170.5" cy="872.5" fill="none" rx="3" ry="3" style="stroke:#038048;stroke-width:1.0;"/><text fill="#000000" font-family="sans-serif" font-size="11" lengthAdjust="spacing" textLength="37" x="179.5" y="877.2589">trigger</text><ellipse cx="170.5" cy="887.4819" fill="none" rx="3" ry="3" style="stroke:#038048;stroke-width:1.0;"/><text fill="#000000" font-family="sans-serif" font-size="11" lengthAdjust="spacing" textLength="32" x="179.5" y="892.2408">guard</text><ellipse cx="170.5" cy="902.4638" fill="none" rx="3" ry="3" style="stroke:#038048;stroke-width:1.0;"/><text fill="#000000" font-family="sans-serif" font-size="11" lengthAdjust="spacing" textLength="32" x="179.5" y="907.2227">action</text><line style="stroke:#A80036;stroke-width:1.5;" x1="160.5" x2="290.5" y1="914.4457" y2="914.4457"/><!--MD5=[15d9463126db8a01ebc84ce5ad095b0c]
class DefaultStateTransition--><rect codeLine="77" fill="#FEFECE" filter="url(#f1rptu1p1s67rk)" height="92.9457" id="DefaultStateTransition" style="stroke:#A80036;stroke-width:1.5;" width="158" x="326.5" y="829.5"/><ellipse cx="341.5" cy="845.5" fill="#ADD1B2" rx="11" ry="11" style="stroke:#A80036;stroke-width:1.0;"/><path d="M340.9688,852.4219 Q339.2188,852.4219 338.0781,851.6875 Q336.9531,850.9375 336.3906,849.5938 Q335.8438,848.2344 335.8438,846.4375 Q335.8438,844.4063 336.5,842.9531 Q337.1563,841.5 338.4375,840.7188 Q339.7188,839.9375 341.5938,839.9375 Q342.4844,839.9375 343.1563,840.125 Q343.8281,840.2969 344.5156,840.6406 L343.7031,842.6563 Q343.0781,842.3438 342.5313,842.2188 Q342,842.0938 341.5156,842.0938 Q340.3438,842.0938 339.6406,842.625 Q338.9375,843.1563 338.6406,844.1094 Q338.3438,845.0625 338.3438,846.3281 Q338.3438,848.3438 339.0625,849.3125 Q339.7813,850.2656 341.375,850.2656 Q341.9688,850.2656 342.5938,850.1094 Q343.2188,849.9531 344.0469,849.5781 L344.0469,851.7969 Q343.3125,852.1094 342.5156,852.2656 Q341.7344,852.4219 340.9688,852.4219 Z " fill="#000000"/><text fill="#000000" font-family="sans-serif" font-size="12" lengthAdjust="spacing" textLength="126" x="355.5" y="850.156">DefaultStateTransition</text><line style="stroke:#A80036;stroke-width:1.5;" x1="327.5" x2="483.5" y1="861.5" y2="861.5"/><ellipse cx="337.5" cy="872.5" fill="none" rx="3" ry="3" style="stroke:#038048;stroke-width:1.0;"/><text fill="#000000" font-family="sans-serif" font-size="11" lengthAdjust="spacing" textLength="25" x="346.5" y="877.2589">state</text><ellipse cx="337.5" cy="887.4819" fill="none" rx="3" ry="3" style="stroke:#038048;stroke-width:1.0;"/><text fill="#000000" font-family="sans-serif" font-size="11" lengthAdjust="spacing" textLength="32" x="346.5" y="892.2408">guard</text><ellipse cx="337.5" cy="902.4638" fill="none" rx="3" ry="3" style="stroke:#038048;stroke-width:1.0;"/><text fill="#000000" font-family="sans-serif" font-size="11" lengthAdjust="spacing" textLength="32" x="346.5" y="907.2227">action</text><line style="stroke:#A80036;stroke-width:1.5;" x1="327.5" x2="483.5" y1="914.4457" y2="914.4457"/><!--MD5=[13deb59da9e03dda4a4fb898ac13510d]
class DefaultInternalTransition--><rect codeLine="83" fill="#FEFECE" filter="url(#f1rptu1p1s67rk)" height="77.9638" id="DefaultInternalTransition" style="stroke:#A80036;stroke-width:1.5;" width="173" x="520" y="837"/><ellipse cx="535" cy="853" fill="#ADD1B2" rx="11" ry="11" style="stroke:#A80036;stroke-width:1.0;"/><path d="M534.4688,859.9219 Q532.7188,859.9219 531.5781,859.1875 Q530.4531,858.4375 529.8906,857.0938 Q529.3438,855.7344 529.3438,853.9375 Q529.3438,851.9063 530,850.4531 Q530.6563,849 531.9375,848.2188 Q533.2188,847.4375 535.0938,847.4375 Q535.9844,847.4375 536.6563,847.625 Q537.3281,847.7969 538.0156,848.1406 L537.2031,850.1563 Q536.5781,849.8438 536.0313,849.7188 Q535.5,849.5938 535.0156,849.5938 Q533.8438,849.5938 533.1406,850.125 Q532.4375,850.6563 532.1406,851.6094 Q531.8438,852.5625 531.8438,853.8281 Q531.8438,855.8438 532.5625,856.8125 Q533.2813,857.7656 534.875,857.7656 Q535.4688,857.7656 536.0938,857.6094 Q536.7188,857.4531 537.5469,857.0781 L537.5469,859.2969 Q536.8125,859.6094 536.0156,859.7656 Q535.2344,859.9219 534.4688,859.9219 Z " fill="#000000"/><text fill="#000000" font-family="sans-serif" font-size="12" lengthAdjust="spacing" textLength="141" x="549" y="857.656">DefaultInternalTransition</text><line style="stroke:#A80036;stroke-width:1.5;" x1="521" x2="692" y1="869" y2="869"/><ellipse cx="531" cy="880" fill="none" rx="3" ry="3" style="stroke:#038048;stroke-width:1.0;"/><text fill="#000000" font-family="sans-serif" font-size="11" lengthAdjust="spacing" textLength="32" x="540" y="884.7589">guard</text><ellipse cx="531" cy="894.9819" fill="none" rx="3" ry="3" style="stroke:#038048;stroke-width:1.0;"/><text fill="#000000" font-family="sans-serif" font-size="11" lengthAdjust="spacing" textLength="32" x="540" y="899.7408">action</text><line style="stroke:#A80036;stroke-width:1.5;" x1="521" x2="692" y1="906.9638" y2="906.9638"/><!--MD5=[a207ad2c9da366c675680e473e7eab6b]
class EventParameter--><rect codeLine="97" fill="#FEFECE" filter="url(#f1rptu1p1s67rk)" height="48" id="EventParameter" style="stroke:#A80036;stroke-width:1.5;" width="119" x="728" y="852"/><ellipse cx="743" cy="868" fill="#B4A7E5" rx="11" ry="11" style="stroke:#A80036;stroke-width:1.0;"/><path d="M739.0313,874.5 L739.0313,872.7969 L741.3906,872.5313 L741.3906,864.3281 L739.0313,864.0625 L739.0313,862.3594 L746.1719,862.3594 L746.1719,864.0625 L743.75,864.3281 L743.75,872.5313 L746.1719,872.7969 L746.1719,874.5 L739.0313,874.5 Z " fill="#000000"/><text fill="#000000" font-family="sans-serif" font-size="12" font-style="italic" lengthAdjust="spacing" textLength="87" x="757" y="872.656">EventParameter</text><line style="stroke:#A80036;stroke-width:1.5;" x1="729" x2="846" y1="884" y2="884"/><line style="stroke:#A80036;stroke-width:1.5;" x1="729" x2="846" y1="892" y2="892"/><!--MD5=[95506b1c3a35118e33887129603a72cf]
reverse link StateMachine to State--><path codeLine="1" d="M467.58,561.1 C459.03,578.1 450.92,594.23 443.55,608.87 " fill="none" id="StateMachine-backto-State" style="stroke:#A80036;stroke-width:1.0;"/><polygon fill="#A80036" points="473.57,549.19,467.3002,552.7523,468.1771,559.9099,474.4468,556.3476,473.57,549.19" style="stroke:#A80036;stroke-width:1.0;"/><text fill="#000000" font-family="sans-serif" font-size="13" lengthAdjust="spacing" textLength="20" x="426.4427" y="597.0309">1..*</text><!--MD5=[67c3c38b269a4d74eeebfd9b6d235a46]
reverse link StateMachine to InitialTransition--><path codeLine="2" d="M609.5,562.44 C609.5,595.28 609.5,624.75 609.5,646.5 " fill="none" id="StateMachine-backto-InitialTransition" style="stroke:#A80036;stroke-width:1.0;"/><polygon fill="#A80036" points="609.5,549.19,605.5,555.19,609.5,561.19,613.5,555.19,609.5,549.19" style="stroke:#A80036;stroke-width:1.0;"/><!--MD5=[b20897df81fa90eeef6b07dd5cbd744d]
reverse link StateMachine to Event--><path codeLine="3" d="M722.28,561.31 C731.44,584.22 739.94,605.51 747.22,623.73 " fill="none" id="StateMachine-backto-Event" style="stroke:#A80036;stroke-width:1.0;"/><polygon fill="#A80036" points="717.44,549.19,715.9472,556.2449,721.8853,560.3363,723.3781,553.2814,717.44,549.19" style="stroke:#A80036;stroke-width:1.0;"/><text fill="#000000" font-family="sans-serif" font-size="13" lengthAdjust="spacing" textLength="20" x="723.0421" y="612.1114">0..*</text><!--MD5=[9507a5a24bd4c79de7dcca762d690f4b]
reverse link State to StateTransition--><path codeLine="5" d="M314.5,729.43 C262.84,754.73 197.51,788.31 141.5,822 C135.85,825.4 130.06,829.07 124.32,832.84 " fill="none" id="State-backto-StateTransition" style="stroke:#A80036;stroke-width:1.0;"/><polygon fill="#A80036" points="326.31,723.67,319.1637,722.7053,315.5247,728.9308,322.6709,729.8955,326.31,723.67" style="stroke:#A80036;stroke-width:1.0;"/><text fill="#000000" font-family="sans-serif" font-size="13" lengthAdjust="spacing" textLength="20" x="131.4551" y="823.8626">0..*</text><!--MD5=[6c512e1b971cd483fe2f0d48462de2c7]
reverse link State to InternalTransition--><path codeLine="6" d="M324.09,771.75 C305.18,791.56 285.75,811.91 269.19,829.25 " fill="none" id="State-backto-InternalTransition" style="stroke:#A80036;stroke-width:1.0;"/><polygon fill="#A80036" points="333.32,762.08,326.2826,763.6531,325.028,770.7543,332.0654,769.1811,333.32,762.08" style="stroke:#A80036;stroke-width:1.0;"/><text fill="#000000" font-family="sans-serif" font-size="13" lengthAdjust="spacing" textLength="20" x="254.3488" y="817.7451">0..*</text><!--MD5=[a7d9c02f4de1d865bdcb7260e0a9b625]
reverse link State to DefaultStateTransition--><path codeLine="7" d="M405.5,775.27 C405.5,793.96 405.5,812.93 405.5,829.25 " fill="none" id="State-backto-DefaultStateTransition" style="stroke:#A80036;stroke-width:1.0;"/><polygon fill="#A80036" points="405.5,762.08,401.5,768.08,405.5,774.08,409.5,768.08,405.5,762.08" style="stroke:#A80036;stroke-width:1.0;"/><!--MD5=[b0da3ae612629415867fce21582161fd]
reverse link State to DefaultInternalTransition--><path codeLine="8" d="M494.17,769.66 C519.17,793.1 545.17,817.48 565.84,836.87 " fill="none" id="State-backto-DefaultInternalTransition" style="stroke:#A80036;stroke-width:1.0;"/><polygon fill="#A80036" points="484.65,760.73,486.2886,767.7525,493.4012,768.9408,491.7625,761.9183,484.65,760.73" style="stroke:#A80036;stroke-width:1.0;"/><!--MD5=[6079f3957ae7ee0ef87ce1ee77e1e1cd]
reverse link Event to EventParameter--><path codeLine="10" d="M777.78,760.44 C780.55,793.11 783.61,829.19 785.54,851.96 " fill="none" id="Event-backto-EventParameter" style="stroke:#A80036;stroke-width:1.0;"/><polygon fill="#A80036" points="776.65,747.18,773.1725,753.4972,777.6662,759.1369,781.1437,752.8197,776.65,747.18" style="stroke:#A80036;stroke-width:1.0;"/><!--MD5=[fb6fda92336bbc20919d804831884127]
@startuml StateMachine
StateMachine *- - "1..*" State
StateMachine *- - InitialTransition
StateMachine *- - "0..*" Event

State *- - "0..*" StateTransition
State *- - "0..*" InternalTransition
State *- - DefaultStateTransition
State *- - DefaultInternalTransition

Event *- - EventParameter

class StateMachine {
    -states
    -initialTransition
    -validationStatus
    -started
    -currentState
    -eventQueue
    -finalEvent

    +validationStatus()
    +validate()
    +isStarted()
    +start(event)
    +stop()
    +currentState()
    +finalStateReached()
    +hasFinalEvent()
    +takeFinalEvent()
    +hasPendingEvents()
    +addEventToFront(event)
    +addEventToBack(event)
    +processNextEvent()
    +addState(name, entryAction, exitAction)
    +initialState()
    +setInitialTransition(initialState, action)
    +addStateTransition(fromState, trigger, toState, guard, action)
    +addInternalTransition(state, trigger, guard, action)
    +setDefaultTransition(fromState, trigger, toState, guard, action)
    +setDefaultTransition(state, trigger, guard, action)
    -traverseStates(state, statesReached)
    -executeInitialTransition(event)
    -executeStateTransition(transitionData, event)
    -executeInternalTransition(transitionData, event)
    -executeDefaultStateTransition(transitionData, event)
    -executeDefaultInternalTransition(transitionData, event)
}

class State {
    +name
    +entryAction
    +exitAction
    +stateTransitions
    +internalTransitions
    +defaultStateTransition
    +defaultInternalTransition
}

class InitialTransition {
    +state
    +action
}

class StateTransition {
    +trigger
    +state
    +guard
    +action
}

class InternalTransition {
    +trigger
    +guard
    +action
}

class DefaultStateTransition {
    +state
    +guard
    +action
}

class DefaultInternalTransition {
    +guard
    +action
}

class Event {
    -name
    -parameter

    +name()
    +hasParameter()
    +parameter()
}

interface EventParameter {
}
@enduml

PlantUML version 1.2021.00(Sun Jan 10 11:25:05 CET 2021)
(GPL source distribution)
Java Runtime: OpenJDK Runtime Environment
JVM: OpenJDK 64-Bit Server VM
Default Encoding: UTF-8
Language: en
Country: US
--></g></svg>