<?xml version="1.0" encoding="UTF-8" standalone="no"?><svg xmlns="http://www.w3.org/2000/svg" xmlns:xlink="http://www.w3.org/1999/xlink" contentScriptType="application/ecmascript" contentStyleType="text/css" height="1003px" preserveAspectRatio="none" style="width:540px;height:1003px;background:#FFFFFF;" version="1.1" viewBox="0 0 540 1003" width="540px" zoomAndPan="magnify"><defs><filter height="300%" id="f2en558l95yi0" width="300%" x="-1" y="-1"><feGaussianBlur result="blurOut" stdDeviation="2.0"/><feColorMatrix in="blurOut" result="blurOut2" type="matrix" values="0 0 0 0 0 0 0 0 0 0 0 0 0 0 0 0 0 0 .4 0"/><feOffset dx="4.0" dy="4.0" in="blurOut2" result="blurOut3"/><feBlend in="SourceGraphic" in2="blurOut3" mode="normal"/></filter></defs><g><!--MD5=[3626c233e602113c8cf5977cfac9c02f]
class StateMachine--><rect codeLine="10" fill="#FEFECE" filter="url(#f2en558l95yi0)" height="617.3117" id="StateMachine" style="stroke:#A80036;stroke-width:1.5;" width="345" x="147" y="7"/><ellipse cx="276.75" cy="23" fill="#ADD1B2" rx="11" ry="11" style="stroke:#A80036;stroke-width:1.0;"/><path d="M276.2188,29.9219 Q274.4688,29.9219 273.3281,29.1875 Q272.2031,28.4375 271.6406,27.0938 Q271.0938,25.7344 271.0938,23.9375 Q271.0938,21.9063 271.75,20.4531 Q272.4063,19 273.6875,18.2188 Q274.9688,17.4375 276.8438,17.4375 Q277.7344,17.4375 278.4063,17.625 Q279.0781,17.7969 279.7656,18.1406 L278.9531,20.1563 Q278.3281,19.8438 277.7813,19.7188 Q277.25,19.5938 276.7656,19.5938 Q275.5938,19.5938 274.8906,20.125 Q274.1875,20.6563 273.8906,21.6094 Q273.5938,22.5625 273.5938,23.8281 Q273.5938,25.8438 274.3125,26.8125 Q275.0313,27.7656 276.625,27.7656 Q277.2188,27.7656 277.8438,27.6094 Q278.4688,27.4531 279.2969,27.0781 L279.2969,29.2969 Q278.5625,29.6094 277.7656,29.7656 Q276.9844,29.9219 276.2188,29.9219 Z " fill="#000000"/><text fill="#000000" font-family="sans-serif" font-size="12" lengthAdjust="spacing" textLength="77" x="297.25" y="27.656">StateMachine</text><line style="stroke:#A80036;stroke-width:1.5;" x1="148" x2="491" y1="39" y2="39"/><rect fill="none" height="6" style="stroke:#C82930;stroke-width:1.0;" width="6" x="155" y="47"/><text fill="#000000" font-family="sans-serif" font-size="11" lengthAdjust="spacing" textLength="30" x="167" y="54.7589">states</text><rect fill="none" height="6" style="stroke:#C82930;stroke-width:1.0;" width="6" x="155" y="61.9819"/><text fill="#000000" font-family="sans-serif" font-size="11" lengthAdjust="spacing" textLength="82" x="167" y="69.7408">initialTransition</text><rect fill="none" height="6" style="stroke:#C82930;stroke-width:1.0;" width="6" x="155" y="76.9638"/><text fill="#000000" font-family="sans-serif" font-size="11" lengthAdjust="spacing" textLength="84" x="167" y="84.7227">validationStatus</text><rect fill="none" height="6" style="stroke:#C82930;stroke-width:1.0;" width="6" x="155" y="91.9457"/><text fill="#000000" font-family="sans-serif" font-size="11" lengthAdjust="spacing" textLength="37" x="167" y="99.7046">started</text><rect fill="none" height="6" style="stroke:#C82930;stroke-width:1.0;" width="6" x="155" y="106.9276"/><text fill="#000000" font-family="sans-serif" font-size="11" lengthAdjust="spacing" textLength="65" x="167" y="114.6865">currentState</text><rect fill="none" height="6" style="stroke:#C82930;stroke-width:1.0;" width="6" x="155" y="121.9094"/><text fill="#000000" font-family="sans-serif" font-size="11" lengthAdjust="spacing" textLength="64" x="167" y="129.6684">eventQueue</text><rect fill="none" height="6" style="stroke:#C82930;stroke-width:1.0;" width="6" x="155" y="136.8913"/><text fill="#000000" font-family="sans-serif" font-size="11" lengthAdjust="spacing" textLength="52" x="167" y="144.6502">finalEvent</text><line style="stroke:#A80036;stroke-width:1.5;" x1="148" x2="491" y1="151.8732" y2="151.8732"/><ellipse cx="158" cy="162.8732" fill="#84BE84" rx="3" ry="3" style="stroke:#038048;stroke-width:1.0;"/><text fill="#000000" font-family="sans-serif" font-size="11" lengthAdjust="spacing" textLength="90" x="167" y="167.6321">validationStatus()</text><ellipse cx="158" cy="177.8551" fill="#84BE84" rx="3" ry="3" style="stroke:#038048;stroke-width:1.0;"/><text fill="#000000" font-family="sans-serif" font-size="11" lengthAdjust="spacing" textLength="47" x="167" y="182.614">validate()</text><ellipse cx="158" cy="192.837" fill="#84BE84" rx="3" ry="3" style="stroke:#038048;stroke-width:1.0;"/><text fill="#000000" font-family="sans-serif" font-size="11" lengthAdjust="spacing" textLength="52" x="167" y="197.5959">isStarted()</text><ellipse cx="158" cy="207.8189" fill="#84BE84" rx="3" ry="3" style="stroke:#038048;stroke-width:1.0;"/><text fill="#000000" font-family="sans-serif" font-size="11" lengthAdjust="spacing" textLength="59" x="167" y="212.5778">start(event)</text><ellipse cx="158" cy="222.8008" fill="#84BE84" rx="3" ry="3" style="stroke:#038048;stroke-width:1.0;"/><text fill="#000000" font-family="sans-serif" font-size="11" lengthAdjust="spacing" textLength="179" x="167" y="227.5597">start(eventName, eventParameter)</text><ellipse cx="158" cy="237.7827" fill="#84BE84" rx="3" ry="3" style="stroke:#038048;stroke-width:1.0;"/><text fill="#000000" font-family="sans-serif" font-size="11" lengthAdjust="spacing" textLength="29" x="167" y="242.5416">stop()</text><ellipse cx="158" cy="252.7645" fill="#84BE84" rx="3" ry="3" style="stroke:#038048;stroke-width:1.0;"/><text fill="#000000" font-family="sans-serif" font-size="11" lengthAdjust="spacing" textLength="71" x="167" y="257.5235">currentState()</text><ellipse cx="158" cy="267.7464" fill="#84BE84" rx="3" ry="3" style="stroke:#038048;stroke-width:1.0;"/><text fill="#000000" font-family="sans-serif" font-size="11" lengthAdjust="spacing" textLength="99" x="167" y="272.5053">finalStateReached()</text><ellipse cx="158" cy="282.7283" fill="#84BE84" rx="3" ry="3" style="stroke:#038048;stroke-width:1.0;"/><text fill="#000000" font-family="sans-serif" font-size="11" lengthAdjust="spacing" textLength="78" x="167" y="287.4872">hasFinalEvent()</text><ellipse cx="158" cy="297.7102" fill="#84BE84" rx="3" ry="3" style="stroke:#038048;stroke-width:1.0;"/><text fill="#000000" font-family="sans-serif" font-size="11" lengthAdjust="spacing" textLength="82" x="167" y="302.4691">takeFinalEvent()</text><ellipse cx="158" cy="312.6921" fill="#84BE84" rx="3" ry="3" style="stroke:#038048;stroke-width:1.0;"/><text fill="#000000" font-family="sans-serif" font-size="11" lengthAdjust="spacing" textLength="102" x="167" y="317.451">hasPendingEvents()</text><ellipse cx="158" cy="327.674" fill="#84BE84" rx="3" ry="3" style="stroke:#038048;stroke-width:1.0;"/><text fill="#000000" font-family="sans-serif" font-size="11" lengthAdjust="spacing" textLength="126" x="167" y="332.4329">addEventToFront(event)</text><ellipse cx="158" cy="342.6559" fill="#84BE84" rx="3" ry="3" style="stroke:#038048;stroke-width:1.0;"/><text fill="#000000" font-family="sans-serif" font-size="11" lengthAdjust="spacing" textLength="246" x="167" y="347.4148">addEventToFront(eventName, eventParameter)</text><ellipse cx="158" cy="357.6378" fill="#84BE84" rx="3" ry="3" style="stroke:#038048;stroke-width:1.0;"/><text fill="#000000" font-family="sans-serif" font-size="11" lengthAdjust="spacing" textLength="121" x="167" y="362.3967">addEventToBack(event)</text><ellipse cx="158" cy="372.6196" fill="#84BE84" rx="3" ry="3" style="stroke:#038048;stroke-width:1.0;"/><text fill="#000000" font-family="sans-serif" font-size="11" lengthAdjust="spacing" textLength="241" x="167" y="377.3786">addEventToBack(eventName, eventParameter)</text><ellipse cx="158" cy="387.6015" fill="#84BE84" rx="3" ry="3" style="stroke:#038048;stroke-width:1.0;"/><text fill="#000000" font-family="sans-serif" font-size="11" lengthAdjust="spacing" textLength="99" x="167" y="392.3604">processNextEvent()</text><ellipse cx="158" cy="402.5834" fill="#84BE84" rx="3" ry="3" style="stroke:#038048;stroke-width:1.0;"/><text fill="#000000" font-family="sans-serif" font-size="11" lengthAdjust="spacing" textLength="26" x="167" y="407.3423">poll()</text><ellipse cx="158" cy="417.5653" fill="#84BE84" rx="3" ry="3" style="stroke:#038048;stroke-width:1.0;"/><text fill="#000000" font-family="sans-serif" font-size="11" lengthAdjust="spacing" textLength="107" x="167" y="422.3242">addState(stateName)</text><ellipse cx="158" cy="432.5472" fill="#84BE84" rx="3" ry="3" style="stroke:#038048;stroke-width:1.0;"/><text fill="#000000" font-family="sans-serif" font-size="11" lengthAdjust="spacing" textLength="230" x="167" y="437.3061">setStateEntryAction(stateName, entryAction)</text><ellipse cx="158" cy="447.5291" fill="#84BE84" rx="3" ry="3" style="stroke:#038048;stroke-width:1.0;"/><text fill="#000000" font-family="sans-serif" font-size="11" lengthAdjust="spacing" textLength="199" x="167" y="452.288">setStateAction(stateName, stateAction)</text><ellipse cx="158" cy="462.511" fill="#84BE84" rx="3" ry="3" style="stroke:#038048;stroke-width:1.0;"/><text fill="#000000" font-family="sans-serif" font-size="11" lengthAdjust="spacing" textLength="212" x="167" y="467.2699">setStateExitAction(stateName, exitAction)</text><ellipse cx="158" cy="477.4929" fill="#84BE84" rx="3" ry="3" style="stroke:#038048;stroke-width:1.0;"/><text fill="#000000" font-family="sans-serif" font-size="11" lengthAdjust="spacing" textLength="61" x="167" y="482.2518">initialState()</text><ellipse cx="158" cy="492.4747" fill="#84BE84" rx="3" ry="3" style="stroke:#038048;stroke-width:1.0;"/><text fill="#000000" font-family="sans-serif" font-size="11" lengthAdjust="spacing" textLength="197" x="167" y="497.2337">setInitialTransition(initialState, action)</text><ellipse cx="158" cy="507.4566" fill="#84BE84" rx="3" ry="3" style="stroke:#038048;stroke-width:1.0;"/><text fill="#000000" font-family="sans-serif" font-size="11" lengthAdjust="spacing" textLength="319" x="167" y="512.2155">addStateTransition(fromState, trigger, toState, action, guard)</text><ellipse cx="158" cy="522.4385" fill="#84BE84" rx="3" ry="3" style="stroke:#038048;stroke-width:1.0;"/><text fill="#000000" font-family="sans-serif" font-size="11" lengthAdjust="spacing" textLength="265" x="167" y="527.1974">addInternalTransition(state, trigger, actionguard, )</text><ellipse cx="158" cy="537.4204" fill="#84BE84" rx="3" ry="3" style="stroke:#038048;stroke-width:1.0;"/><text fill="#000000" font-family="sans-serif" font-size="11" lengthAdjust="spacing" textLength="283" x="167" y="542.1793">setDefaultTransition(fromState, toState, action, guard)</text><ellipse cx="158" cy="552.4023" fill="#84BE84" rx="3" ry="3" style="stroke:#038048;stroke-width:1.0;"/><text fill="#000000" font-family="sans-serif" font-size="11" lengthAdjust="spacing" textLength="213" x="167" y="557.1612">setDefaultTransition(state, action, guard)</text><rect fill="#F24D5C" height="6" style="stroke:#C82930;stroke-width:1.0;" width="6" x="155" y="564.3842"/><text fill="#000000" font-family="sans-serif" font-size="11" lengthAdjust="spacing" textLength="185" x="167" y="572.1431">traverseStates(state, statesReached)</text><rect fill="#F24D5C" height="6" style="stroke:#C82930;stroke-width:1.0;" width="6" x="155" y="579.3661"/><text fill="#000000" font-family="sans-serif" font-size="11" lengthAdjust="spacing" textLength="158" x="167" y="587.125">executeInitialTransition(event)</text><rect fill="#F24D5C" height="6" style="stroke:#C82930;stroke-width:1.0;" width="6" x="155" y="594.348"/><text fill="#000000" font-family="sans-serif" font-size="11" lengthAdjust="spacing" textLength="235" x="167" y="602.1069">executeStateTransition(transitionData, event)</text><rect fill="#F24D5C" height="6" style="stroke:#C82930;stroke-width:1.0;" width="6" x="155" y="609.3298"/><text fill="#000000" font-family="sans-serif" font-size="11" lengthAdjust="spacing" textLength="251" x="167" y="617.0888">executeInternalTransition(transitionData, event)</text><!--MD5=[60d6b92408f98aed8df94d5c6e04aa63]
class State--><rect codeLine="52" fill="#FEFECE" filter="url(#f2en558l95yi0)" height="152.8732" id="State" style="stroke:#A80036;stroke-width:1.5;" width="158" x="66.5" y="684"/><ellipse cx="126.75" cy="700" fill="#ADD1B2" rx="11" ry="11" style="stroke:#A80036;stroke-width:1.0;"/><path d="M126.2188,706.9219 Q124.4688,706.9219 123.3281,706.1875 Q122.2031,705.4375 121.6406,704.0938 Q121.0938,702.7344 121.0938,700.9375 Q121.0938,698.9063 121.75,697.4531 Q122.4063,696 123.6875,695.2188 Q124.9688,694.4375 126.8438,694.4375 Q127.7344,694.4375 128.4063,694.625 Q129.0781,694.7969 129.7656,695.1406 L128.9531,697.1563 Q128.3281,696.8438 127.7813,696.7188 Q127.25,696.5938 126.7656,696.5938 Q125.5938,696.5938 124.8906,697.125 Q124.1875,697.6563 123.8906,698.6094 Q123.5938,699.5625 123.5938,700.8281 Q123.5938,702.8438 124.3125,703.8125 Q125.0313,704.7656 126.625,704.7656 Q127.2188,704.7656 127.8438,704.6094 Q128.4688,704.4531 129.2969,704.0781 L129.2969,706.2969 Q128.5625,706.6094 127.7656,706.7656 Q126.9844,706.9219 126.2188,706.9219 Z " fill="#000000"/><text fill="#000000" font-family="sans-serif" font-size="12" lengthAdjust="spacing" textLength="29" x="147.25" y="704.656">State</text><line style="stroke:#A80036;stroke-width:1.5;" x1="67.5" x2="223.5" y1="716" y2="716"/><ellipse cx="77.5" cy="727" rx="3" ry="3" style="stroke:#038048;stroke-width:1.0;fill:none;"/><text fill="#000000" font-family="sans-serif" font-size="11" lengthAdjust="spacing" textLength="61" x="86.5" y="731.7589">entryAction</text><ellipse cx="77.5" cy="741.9819" rx="3" ry="3" style="stroke:#038048;stroke-width:1.0;fill:none;"/><text fill="#000000" font-family="sans-serif" font-size="11" lengthAdjust="spacing" textLength="58" x="86.5" y="746.7408">stateAction</text><ellipse cx="77.5" cy="756.9638" rx="3" ry="3" style="stroke:#038048;stroke-width:1.0;fill:none;"/><text fill="#000000" font-family="sans-serif" font-size="11" lengthAdjust="spacing" textLength="52" x="86.5" y="761.7227">exitAction</text><ellipse cx="77.5" cy="771.9457" rx="3" ry="3" style="stroke:#038048;stroke-width:1.0;fill:none;"/><text fill="#000000" font-family="sans-serif" font-size="11" lengthAdjust="spacing" textLength="83" x="86.5" y="776.7046">stateTransitions</text><ellipse cx="77.5" cy="786.9276" rx="3" ry="3" style="stroke:#038048;stroke-width:1.0;fill:none;"/><text fill="#000000" font-family="sans-serif" font-size="11" lengthAdjust="spacing" textLength="99" x="86.5" y="791.6865">internalTransitions</text><ellipse cx="77.5" cy="801.9094" rx="3" ry="3" style="stroke:#038048;stroke-width:1.0;fill:none;"/><text fill="#000000" font-family="sans-serif" font-size="11" lengthAdjust="spacing" textLength="116" x="86.5" y="806.6684">defaultStateTransition</text><ellipse cx="77.5" cy="816.8913" rx="3" ry="3" style="stroke:#038048;stroke-width:1.0;fill:none;"/><text fill="#000000" font-family="sans-serif" font-size="11" lengthAdjust="spacing" textLength="132" x="86.5" y="821.6502">defaultInternalTransition</text><line style="stroke:#A80036;stroke-width:1.5;" x1="67.5" x2="223.5" y1="828.8732" y2="828.8732"/><!--MD5=[f2959d41cfb74379be8d5e6d7a13e1ff]
class InitialTransition--><rect codeLine="62" fill="#FEFECE" filter="url(#f2en558l95yi0)" height="77.9638" id="InitialTransition" style="stroke:#A80036;stroke-width:1.5;" width="119" x="260" y="721.5"/><ellipse cx="275" cy="737.5" fill="#ADD1B2" rx="11" ry="11" style="stroke:#A80036;stroke-width:1.0;"/><path d="M274.4688,744.4219 Q272.7188,744.4219 271.5781,743.6875 Q270.4531,742.9375 269.8906,741.5938 Q269.3438,740.2344 269.3438,738.4375 Q269.3438,736.4063 270,734.9531 Q270.6563,733.5 271.9375,732.7188 Q273.2188,731.9375 275.0938,731.9375 Q275.9844,731.9375 276.6563,732.125 Q277.3281,732.2969 278.0156,732.6406 L277.2031,734.6563 Q276.5781,734.3438 276.0313,734.2188 Q275.5,734.0938 275.0156,734.0938 Q273.8438,734.0938 273.1406,734.625 Q272.4375,735.1563 272.1406,736.1094 Q271.8438,737.0625 271.8438,738.3281 Q271.8438,740.3438 272.5625,741.3125 Q273.2813,742.2656 274.875,742.2656 Q275.4688,742.2656 276.0938,742.1094 Q276.7188,741.9531 277.5469,741.5781 L277.5469,743.7969 Q276.8125,744.1094 276.0156,744.2656 Q275.2344,744.4219 274.4688,744.4219 Z " fill="#000000"/><text fill="#000000" font-family="sans-serif" font-size="12" lengthAdjust="spacing" textLength="87" x="289" y="742.156">InitialTransition</text><line style="stroke:#A80036;stroke-width:1.5;" x1="261" x2="378" y1="753.5" y2="753.5"/><ellipse cx="271" cy="764.5" rx="3" ry="3" style="stroke:#038048;stroke-width:1.0;fill:none;"/><text fill="#000000" font-family="sans-serif" font-size="11" lengthAdjust="spacing" textLength="25" x="280" y="769.2589">state</text><ellipse cx="271" cy="779.4819" rx="3" ry="3" style="stroke:#038048;stroke-width:1.0;fill:none;"/><text fill="#000000" font-family="sans-serif" font-size="11" lengthAdjust="spacing" textLength="32" x="280" y="784.2408">action</text><line style="stroke:#A80036;stroke-width:1.5;" x1="261" x2="378" y1="791.4638" y2="791.4638"/><!--MD5=[ac13618b1a974308c1f12eb6c57723dc]
class Event--><rect codeLine="78" fill="#FEFECE" filter="url(#f2en558l95yi0)" height="122.9094" id="Event" style="stroke:#A80036;stroke-width:1.5;" width="105" x="414" y="699"/><ellipse cx="447.9" cy="715" fill="#ADD1B2" rx="11" ry="11" style="stroke:#A80036;stroke-width:1.0;"/><path d="M447.3688,721.9219 Q445.6188,721.9219 444.4781,721.1875 Q443.3531,720.4375 442.7906,719.0938 Q442.2438,717.7344 442.2438,715.9375 Q442.2438,713.9063 442.9,712.4531 Q443.5563,711 444.8375,710.2188 Q446.1188,709.4375 447.9938,709.4375 Q448.8844,709.4375 449.5563,709.625 Q450.2281,709.7969 450.9156,710.1406 L450.1031,712.1563 Q449.4781,711.8438 448.9313,711.7188 Q448.4,711.5938 447.9156,711.5938 Q446.7438,711.5938 446.0406,712.125 Q445.3375,712.6563 445.0406,713.6094 Q444.7438,714.5625 444.7438,715.8281 Q444.7438,717.8438 445.4625,718.8125 Q446.1813,719.7656 447.775,719.7656 Q448.3688,719.7656 448.9938,719.6094 Q449.6188,719.4531 450.4469,719.0781 L450.4469,721.2969 Q449.7125,721.6094 448.9156,721.7656 Q448.1344,721.9219 447.3688,721.9219 Z " fill="#000000"/><text fill="#000000" font-family="sans-serif" font-size="12" lengthAdjust="spacing" textLength="31" x="466.1" y="719.656">Event</text><line style="stroke:#A80036;stroke-width:1.5;" x1="415" x2="518" y1="731" y2="731"/><rect fill="none" height="6" style="stroke:#C82930;stroke-width:1.0;" width="6" x="422" y="739"/><text fill="#000000" font-family="sans-serif" font-size="11" lengthAdjust="spacing" textLength="29" x="434" y="746.7589">name</text><rect fill="none" height="6" style="stroke:#C82930;stroke-width:1.0;" width="6" x="422" y="753.9819"/><text fill="#000000" font-family="sans-serif" font-size="11" lengthAdjust="spacing" textLength="55" x="434" y="761.7408">parameter</text><line style="stroke:#A80036;stroke-width:1.5;" x1="415" x2="518" y1="768.9638" y2="768.9638"/><ellipse cx="425" cy="779.9638" fill="#84BE84" rx="3" ry="3" style="stroke:#038048;stroke-width:1.0;"/><text fill="#000000" font-family="sans-serif" font-size="11" lengthAdjust="spacing" textLength="35" x="434" y="784.7227">name()</text><ellipse cx="425" cy="794.9457" fill="#84BE84" rx="3" ry="3" style="stroke:#038048;stroke-width:1.0;"/><text fill="#000000" font-family="sans-serif" font-size="11" lengthAdjust="spacing" textLength="79" x="434" y="799.7046">hasParameter()</text><ellipse cx="425" cy="809.9276" fill="#84BE84" rx="3" ry="3" style="stroke:#038048;stroke-width:1.0;"/><text fill="#000000" font-family="sans-serif" font-size="11" lengthAdjust="spacing" textLength="61" x="434" y="814.6865">parameter()</text><!--MD5=[c21ba447c96c164cc1ee124342ce6c0a]
class StateTransition--><rect codeLine="67" fill="#FEFECE" filter="url(#f2en558l95yi0)" height="92.9457" id="StateTransition" style="stroke:#A80036;stroke-width:1.5;" width="117" x="7" y="897"/><ellipse cx="22" cy="913" fill="#ADD1B2" rx="11" ry="11" style="stroke:#A80036;stroke-width:1.0;"/><path d="M21.4688,919.9219 Q19.7188,919.9219 18.5781,919.1875 Q17.4531,918.4375 16.8906,917.0938 Q16.3438,915.7344 16.3438,913.9375 Q16.3438,911.9063 17,910.4531 Q17.6563,909 18.9375,908.2188 Q20.2188,907.4375 22.0938,907.4375 Q22.9844,907.4375 23.6563,907.625 Q24.3281,907.7969 25.0156,908.1406 L24.2031,910.1563 Q23.5781,909.8438 23.0313,909.7188 Q22.5,909.5938 22.0156,909.5938 Q20.8438,909.5938 20.1406,910.125 Q19.4375,910.6563 19.1406,911.6094 Q18.8438,912.5625 18.8438,913.8281 Q18.8438,915.8438 19.5625,916.8125 Q20.2813,917.7656 21.875,917.7656 Q22.4688,917.7656 23.0938,917.6094 Q23.7188,917.4531 24.5469,917.0781 L24.5469,919.2969 Q23.8125,919.6094 23.0156,919.7656 Q22.2344,919.9219 21.4688,919.9219 Z " fill="#000000"/><text fill="#000000" font-family="sans-serif" font-size="12" lengthAdjust="spacing" textLength="85" x="36" y="917.656">StateTransition</text><line style="stroke:#A80036;stroke-width:1.5;" x1="8" x2="123" y1="929" y2="929"/><ellipse cx="18" cy="940" rx="3" ry="3" style="stroke:#038048;stroke-width:1.0;fill:none;"/><text fill="#000000" font-family="sans-serif" font-size="11" lengthAdjust="spacing" textLength="25" x="27" y="944.7589">state</text><ellipse cx="18" cy="954.9819" rx="3" ry="3" style="stroke:#038048;stroke-width:1.0;fill:none;"/><text fill="#000000" font-family="sans-serif" font-size="11" lengthAdjust="spacing" textLength="32" x="27" y="959.7408">guard</text><ellipse cx="18" cy="969.9638" rx="3" ry="3" style="stroke:#038048;stroke-width:1.0;fill:none;"/><text fill="#000000" font-family="sans-serif" font-size="11" lengthAdjust="spacing" textLength="32" x="27" y="974.7227">action</text><line style="stroke:#A80036;stroke-width:1.5;" x1="8" x2="123" y1="981.9457" y2="981.9457"/><!--MD5=[5e16239ef230ef4e5970676a7d2e499f]
class InternalTransition--><rect codeLine="73" fill="#FEFECE" filter="url(#f2en558l95yi0)" height="77.9638" id="InternalTransition" style="stroke:#A80036;stroke-width:1.5;" width="132" x="159.5" y="904.5"/><ellipse cx="174.5" cy="920.5" fill="#ADD1B2" rx="11" ry="11" style="stroke:#A80036;stroke-width:1.0;"/><path d="M173.9688,927.4219 Q172.2188,927.4219 171.0781,926.6875 Q169.9531,925.9375 169.3906,924.5938 Q168.8438,923.2344 168.8438,921.4375 Q168.8438,919.4063 169.5,917.9531 Q170.1563,916.5 171.4375,915.7188 Q172.7188,914.9375 174.5938,914.9375 Q175.4844,914.9375 176.1563,915.125 Q176.8281,915.2969 177.5156,915.6406 L176.7031,917.6563 Q176.0781,917.3438 175.5313,917.2188 Q175,917.0938 174.5156,917.0938 Q173.3438,917.0938 172.6406,917.625 Q171.9375,918.1563 171.6406,919.1094 Q171.3438,920.0625 171.3438,921.3281 Q171.3438,923.3438 172.0625,924.3125 Q172.7813,925.2656 174.375,925.2656 Q174.9688,925.2656 175.5938,925.1094 Q176.2188,924.9531 177.0469,924.5781 L177.0469,926.7969 Q176.3125,927.1094 175.5156,927.2656 Q174.7344,927.4219 173.9688,927.4219 Z " fill="#000000"/><text fill="#000000" font-family="sans-serif" font-size="12" lengthAdjust="spacing" textLength="100" x="188.5" y="925.156">InternalTransition</text><line style="stroke:#A80036;stroke-width:1.5;" x1="160.5" x2="290.5" y1="936.5" y2="936.5"/><ellipse cx="170.5" cy="947.5" rx="3" ry="3" style="stroke:#038048;stroke-width:1.0;fill:none;"/><text fill="#000000" font-family="sans-serif" font-size="11" lengthAdjust="spacing" textLength="32" x="179.5" y="952.2589">guard</text><ellipse cx="170.5" cy="962.4819" rx="3" ry="3" style="stroke:#038048;stroke-width:1.0;fill:none;"/><text fill="#000000" font-family="sans-serif" font-size="11" lengthAdjust="spacing" textLength="32" x="179.5" y="967.2408">action</text><line style="stroke:#A80036;stroke-width:1.5;" x1="160.5" x2="290.5" y1="974.4638" y2="974.4638"/><!--MD5=[a207ad2c9da366c675680e473e7eab6b]
class EventParameter--><rect codeLine="87" fill="#FEFECE" filter="url(#f2en558l95yi0)" height="48" id="EventParameter" style="stroke:#A80036;stroke-width:1.5;" width="119" x="407" y="919.5"/><ellipse cx="422" cy="935.5" fill="#B4A7E5" rx="11" ry="11" style="stroke:#A80036;stroke-width:1.0;"/><path d="M418.0313,942 L418.0313,940.2969 L420.3906,940.0313 L420.3906,931.8281 L418.0313,931.5625 L418.0313,929.8594 L425.1719,929.8594 L425.1719,931.5625 L422.75,931.8281 L422.75,940.0313 L425.1719,940.2969 L425.1719,942 L418.0313,942 Z " fill="#000000"/><text fill="#000000" font-family="sans-serif" font-size="12" font-style="italic" lengthAdjust="spacing" textLength="87" x="436" y="940.156">EventParameter</text><line style="stroke:#A80036;stroke-width:1.5;" x1="408" x2="525" y1="951.5" y2="951.5"/><line style="stroke:#A80036;stroke-width:1.5;" x1="408" x2="525" y1="959.5" y2="959.5"/><!--MD5=[95506b1c3a35118e33887129603a72cf]
reverse link StateMachine to State--><path codeLine="1" d="M193.75,636.65 C187.11,653.56 180.85,669.51 175.17,683.96 " fill="none" id="StateMachine-backto-State" style="stroke:#A80036;stroke-width:1.0;"/><polygon fill="#A80036" points="198.65,624.18,192.732,628.3004,194.2593,635.3479,200.1773,631.2275,198.65,624.18" style="stroke:#A80036;stroke-width:1.0;"/><text fill="#000000" font-family="sans-serif" font-size="13" lengthAdjust="spacing" textLength="20" x="157.1985" y="672.1302">1..*</text><!--MD5=[67c3c38b269a4d74eeebfd9b6d235a46]
reverse link StateMachine to InitialTransition--><path codeLine="2" d="M319.5,637.5 C319.5,670.47 319.5,699.73 319.5,721.32 " fill="none" id="StateMachine-backto-InitialTransition" style="stroke:#A80036;stroke-width:1.0;"/><polygon fill="#A80036" points="319.5,624.18,315.5,630.18,319.5,636.18,323.5,630.18,319.5,624.18" style="stroke:#A80036;stroke-width:1.0;"/><!--MD5=[b20897df81fa90eeef6b07dd5cbd744d]
reverse link StateMachine to Event--><path codeLine="3" d="M425.75,636.71 C433.36,659.64 440.38,680.8 446.38,698.86 " fill="none" id="StateMachine-backto-Event" style="stroke:#A80036;stroke-width:1.0;"/><polygon fill="#A80036" points="421.6,624.18,419.6954,631.135,425.3829,635.5681,427.2875,628.6131,421.6,624.18" style="stroke:#A80036;stroke-width:1.0;"/><text fill="#000000" font-family="sans-serif" font-size="13" lengthAdjust="spacing" textLength="20" x="422.7091" y="687.2572">0..*</text><!--MD5=[9507a5a24bd4c79de7dcca762d690f4b]
reverse link State to StateTransition--><path codeLine="5" d="M106.76,849.16 C99.47,865.64 92.13,882.25 85.7,896.79 " fill="none" id="State-backto-StateTransition" style="stroke:#A80036;stroke-width:1.0;"/><polygon fill="#A80036" points="112.04,837.21,105.9548,841.0792,107.1859,848.1844,113.2711,844.3152,112.04,837.21" style="stroke:#A80036;stroke-width:1.0;"/><text fill="#000000" font-family="sans-serif" font-size="13" lengthAdjust="spacing" textLength="20" x="67.2619" y="885.2912">0..*</text><!--MD5=[6c512e1b971cd483fe2f0d48462de2c7]
reverse link State to InternalTransition--><path codeLine="6" d="M184.26,849.18 C192.79,868.5 201.41,887.99 208.54,904.12 " fill="none" id="State-backto-InternalTransition" style="stroke:#A80036;stroke-width:1.0;"/><polygon fill="#A80036" points="178.96,837.21,177.7289,844.3152,183.8141,848.1844,185.0452,841.0792,178.96,837.21" style="stroke:#A80036;stroke-width:1.0;"/><text fill="#000000" font-family="sans-serif" font-size="13" lengthAdjust="spacing" textLength="20" x="183.7377" y="892.5545">0..*</text><!--MD5=[6079f3957ae7ee0ef87ce1ee77e1e1cd]
reverse link Event to EventParameter--><path codeLine="8" d="M466.5,835.16 C466.5,865.23 466.5,897.87 466.5,919.17 " fill="none" id="Event-backto-EventParameter" style="stroke:#A80036;stroke-width:1.0;"/><polygon fill="#A80036" points="466.5,822.02,462.5,828.02,466.5,834.02,470.5,828.02,466.5,822.02" style="stroke:#A80036;stroke-width:1.0;"/><!--MD5=[dd9c2170889bc9d658563a5507f90202]
@startuml StateMachine
StateMachine *- - "1..*" State
StateMachine *- - InitialTransition
StateMachine *- - "0..*" Event

State *- - "0..*" StateTransition
State *- - "0..*" InternalTransition

Event *- - EventParameter

class StateMachine {
    -states
    -initialTransition
    -validationStatus
    -started
    -currentState
    -eventQueue
    -finalEvent

    +validationStatus()
    +validate()
    +isStarted()
    +start(event)
    +start(eventName, eventParameter)
    +stop()
    +currentState()
    +finalStateReached()
    +hasFinalEvent()
    +takeFinalEvent()
    +hasPendingEvents()
    +addEventToFront(event)
    +addEventToFront(eventName, eventParameter)
    +addEventToBack(event)
    +addEventToBack(eventName, eventParameter)
    +processNextEvent()
    +poll()
    +addState(stateName)
    +setStateEntryAction(stateName, entryAction)
    +setStateAction(stateName, stateAction)
    +setStateExitAction(stateName, exitAction)
    +initialState()
    +setInitialTransition(initialState, action)
    +addStateTransition(fromState, trigger, toState, action, guard)
    +addInternalTransition(state, trigger, actionguard, )
    +setDefaultTransition(fromState, toState, action, guard)
    +setDefaultTransition(state, action, guard)
    -traverseStates(state, statesReached)
    -executeInitialTransition(event)
    -executeStateTransition(transitionData, event)
    -executeInternalTransition(transitionData, event)
}

class State {
    +entryAction
    +stateAction
    +exitAction
    +stateTransitions
    +internalTransitions
    +defaultStateTransition
    +defaultInternalTransition
}

class InitialTransition {
    +state
    +action
}

class StateTransition {
    +state
    +guard
    +action
}

class InternalTransition {
    +guard
    +action
}

class Event {
    -name
    -parameter

    +name()
    +hasParameter()
    +parameter()
}

interface EventParameter {
}
@enduml

PlantUML version 1.2021.7(Sun May 23 14:40:07 CEST 2021)
(GPL source distribution)
Java Runtime: OpenJDK Runtime Environment
JVM: OpenJDK 64-Bit Server VM
Default Encoding: UTF-8
Language: en
Country: US
--></g></svg>