<?xml version="1.0" encoding="UTF-8" standalone="no"?><svg xmlns="http://www.w3.org/2000/svg" xmlns:xlink="http://www.w3.org/1999/xlink" contentScriptType="application/ecmascript" contentStyleType="text/css" height="958px" preserveAspectRatio="none" style="width:540px;height:958px;" version="1.1" viewBox="0 0 540 958" width="540px" zoomAndPan="magnify"><defs><filter height="300%" id="fbtyl6fvvre0" width="300%" x="-1" y="-1"><feGaussianBlur result="blurOut" stdDeviation="2.0"/><feColorMatrix in="blurOut" result="blurOut2" type="matrix" values="0 0 0 0 0 0 0 0 0 0 0 0 0 0 0 0 0 0 .4 0"/><feOffset dx="4.0" dy="4.0" in="blurOut2" result="blurOut3"/><feBlend in="SourceGraphic" in2="blurOut3" mode="normal"/></filter></defs><g><!--MD5=[3626c233e602113c8cf5977cfac9c02f]
class StateMachine--><rect codeLine="10" fill="#FEFECE" filter="url(#fbtyl6fvvre0)" height="587.348" id="StateMachine" style="stroke:#A80036;stroke-width:1.5;" width="345" x="147" y="7"/><ellipse cx="276.75" cy="23" fill="#ADD1B2" rx="11" ry="11" style="stroke:#A80036;stroke-width:1.0;"/><path d="M276.2188,29.9219 Q274.4688,29.9219 273.3281,29.1875 Q272.2031,28.4375 271.6406,27.0938 Q271.0938,25.7344 271.0938,23.9375 Q271.0938,21.9063 271.75,20.4531 Q272.4063,19 273.6875,18.2188 Q274.9688,17.4375 276.8438,17.4375 Q277.7344,17.4375 278.4063,17.625 Q279.0781,17.7969 279.7656,18.1406 L278.9531,20.1563 Q278.3281,19.8438 277.7813,19.7188 Q277.25,19.5938 276.7656,19.5938 Q275.5938,19.5938 274.8906,20.125 Q274.1875,20.6563 273.8906,21.6094 Q273.5938,22.5625 273.5938,23.8281 Q273.5938,25.8438 274.3125,26.8125 Q275.0313,27.7656 276.625,27.7656 Q277.2188,27.7656 277.8438,27.6094 Q278.4688,27.4531 279.2969,27.0781 L279.2969,29.2969 Q278.5625,29.6094 277.7656,29.7656 Q276.9844,29.9219 276.2188,29.9219 Z " fill="#000000"/><text fill="#000000" font-family="sans-serif" font-size="12" lengthAdjust="spacing" textLength="77" x="297.25" y="27.656">StateMachine</text><line style="stroke:#A80036;stroke-width:1.5;" x1="148" x2="491" y1="39" y2="39"/><rect fill="none" height="6" style="stroke:#C82930;stroke-width:1.0;" width="6" x="155" y="47"/><text fill="#000000" font-family="sans-serif" font-size="11" lengthAdjust="spacing" textLength="30" x="167" y="54.7589">states</text><rect fill="none" height="6" style="stroke:#C82930;stroke-width:1.0;" width="6" x="155" y="61.9819"/><text fill="#000000" font-family="sans-serif" font-size="11" lengthAdjust="spacing" textLength="82" x="167" y="69.7408">initialTransition</text><rect fill="none" height="6" style="stroke:#C82930;stroke-width:1.0;" width="6" x="155" y="76.9638"/><text fill="#000000" font-family="sans-serif" font-size="11" lengthAdjust="spacing" textLength="84" x="167" y="84.7227">validationStatus</text><rect fill="none" height="6" style="stroke:#C82930;stroke-width:1.0;" width="6" x="155" y="91.9457"/><text fill="#000000" font-family="sans-serif" font-size="11" lengthAdjust="spacing" textLength="37" x="167" y="99.7046">started</text><rect fill="none" height="6" style="stroke:#C82930;stroke-width:1.0;" width="6" x="155" y="106.9276"/><text fill="#000000" font-family="sans-serif" font-size="11" lengthAdjust="spacing" textLength="65" x="167" y="114.6865">currentState</text><rect fill="none" height="6" style="stroke:#C82930;stroke-width:1.0;" width="6" x="155" y="121.9094"/><text fill="#000000" font-family="sans-serif" font-size="11" lengthAdjust="spacing" textLength="64" x="167" y="129.6684">eventQueue</text><rect fill="none" height="6" style="stroke:#C82930;stroke-width:1.0;" width="6" x="155" y="136.8913"/><text fill="#000000" font-family="sans-serif" font-size="11" lengthAdjust="spacing" textLength="52" x="167" y="144.6502">finalEvent</text><line style="stroke:#A80036;stroke-width:1.5;" x1="148" x2="491" y1="151.8732" y2="151.8732"/><ellipse cx="158" cy="162.8732" fill="#84BE84" rx="3" ry="3" style="stroke:#038048;stroke-width:1.0;"/><text fill="#000000" font-family="sans-serif" font-size="11" lengthAdjust="spacing" textLength="90" x="167" y="167.6321">validationStatus()</text><ellipse cx="158" cy="177.8551" fill="#84BE84" rx="3" ry="3" style="stroke:#038048;stroke-width:1.0;"/><text fill="#000000" font-family="sans-serif" font-size="11" lengthAdjust="spacing" textLength="47" x="167" y="182.614">validate()</text><ellipse cx="158" cy="192.837" fill="#84BE84" rx="3" ry="3" style="stroke:#038048;stroke-width:1.0;"/><text fill="#000000" font-family="sans-serif" font-size="11" lengthAdjust="spacing" textLength="52" x="167" y="197.5959">isStarted()</text><ellipse cx="158" cy="207.8189" fill="#84BE84" rx="3" ry="3" style="stroke:#038048;stroke-width:1.0;"/><text fill="#000000" font-family="sans-serif" font-size="11" lengthAdjust="spacing" textLength="59" x="167" y="212.5778">start(event)</text><ellipse cx="158" cy="222.8008" fill="#84BE84" rx="3" ry="3" style="stroke:#038048;stroke-width:1.0;"/><text fill="#000000" font-family="sans-serif" font-size="11" lengthAdjust="spacing" textLength="179" x="167" y="227.5597">start(eventName, eventParameter)</text><ellipse cx="158" cy="237.7827" fill="#84BE84" rx="3" ry="3" style="stroke:#038048;stroke-width:1.0;"/><text fill="#000000" font-family="sans-serif" font-size="11" lengthAdjust="spacing" textLength="29" x="167" y="242.5416">stop()</text><ellipse cx="158" cy="252.7645" fill="#84BE84" rx="3" ry="3" style="stroke:#038048;stroke-width:1.0;"/><text fill="#000000" font-family="sans-serif" font-size="11" lengthAdjust="spacing" textLength="71" x="167" y="257.5235">currentState()</text><ellipse cx="158" cy="267.7464" fill="#84BE84" rx="3" ry="3" style="stroke:#038048;stroke-width:1.0;"/><text fill="#000000" font-family="sans-serif" font-size="11" lengthAdjust="spacing" textLength="99" x="167" y="272.5053">finalStateReached()</text><ellipse cx="158" cy="282.7283" fill="#84BE84" rx="3" ry="3" style="stroke:#038048;stroke-width:1.0;"/><text fill="#000000" font-family="sans-serif" font-size="11" lengthAdjust="spacing" textLength="78" x="167" y="287.4872">hasFinalEvent()</text><ellipse cx="158" cy="297.7102" fill="#84BE84" rx="3" ry="3" style="stroke:#038048;stroke-width:1.0;"/><text fill="#000000" font-family="sans-serif" font-size="11" lengthAdjust="spacing" textLength="82" x="167" y="302.4691">takeFinalEvent()</text><ellipse cx="158" cy="312.6921" fill="#84BE84" rx="3" ry="3" style="stroke:#038048;stroke-width:1.0;"/><text fill="#000000" font-family="sans-serif" font-size="11" lengthAdjust="spacing" textLength="102" x="167" y="317.451">hasPendingEvents()</text><ellipse cx="158" cy="327.674" fill="#84BE84" rx="3" ry="3" style="stroke:#038048;stroke-width:1.0;"/><text fill="#000000" font-family="sans-serif" font-size="11" lengthAdjust="spacing" textLength="126" x="167" y="332.4329">addEventToFront(event)</text><ellipse cx="158" cy="342.6559" fill="#84BE84" rx="3" ry="3" style="stroke:#038048;stroke-width:1.0;"/><text fill="#000000" font-family="sans-serif" font-size="11" lengthAdjust="spacing" textLength="246" x="167" y="347.4148">addEventToFront(eventName, eventParameter)</text><ellipse cx="158" cy="357.6378" fill="#84BE84" rx="3" ry="3" style="stroke:#038048;stroke-width:1.0;"/><text fill="#000000" font-family="sans-serif" font-size="11" lengthAdjust="spacing" textLength="121" x="167" y="362.3967">addEventToBack(event)</text><ellipse cx="158" cy="372.6196" fill="#84BE84" rx="3" ry="3" style="stroke:#038048;stroke-width:1.0;"/><text fill="#000000" font-family="sans-serif" font-size="11" lengthAdjust="spacing" textLength="241" x="167" y="377.3786">addEventToBack(eventName, eventParameter)</text><ellipse cx="158" cy="387.6015" fill="#84BE84" rx="3" ry="3" style="stroke:#038048;stroke-width:1.0;"/><text fill="#000000" font-family="sans-serif" font-size="11" lengthAdjust="spacing" textLength="99" x="167" y="392.3604">processNextEvent()</text><ellipse cx="158" cy="402.5834" fill="#84BE84" rx="3" ry="3" style="stroke:#038048;stroke-width:1.0;"/><text fill="#000000" font-family="sans-serif" font-size="11" lengthAdjust="spacing" textLength="107" x="167" y="407.3423">addState(stateName)</text><ellipse cx="158" cy="417.5653" fill="#84BE84" rx="3" ry="3" style="stroke:#038048;stroke-width:1.0;"/><text fill="#000000" font-family="sans-serif" font-size="11" lengthAdjust="spacing" textLength="230" x="167" y="422.3242">setStateEntryAction(stateName, entryAction)</text><ellipse cx="158" cy="432.5472" fill="#84BE84" rx="3" ry="3" style="stroke:#038048;stroke-width:1.0;"/><text fill="#000000" font-family="sans-serif" font-size="11" lengthAdjust="spacing" textLength="212" x="167" y="437.3061">setStateExitAction(stateName, exitAction)</text><ellipse cx="158" cy="447.5291" fill="#84BE84" rx="3" ry="3" style="stroke:#038048;stroke-width:1.0;"/><text fill="#000000" font-family="sans-serif" font-size="11" lengthAdjust="spacing" textLength="61" x="167" y="452.288">initialState()</text><ellipse cx="158" cy="462.511" fill="#84BE84" rx="3" ry="3" style="stroke:#038048;stroke-width:1.0;"/><text fill="#000000" font-family="sans-serif" font-size="11" lengthAdjust="spacing" textLength="197" x="167" y="467.2699">setInitialTransition(initialState, action)</text><ellipse cx="158" cy="477.4929" fill="#84BE84" rx="3" ry="3" style="stroke:#038048;stroke-width:1.0;"/><text fill="#000000" font-family="sans-serif" font-size="11" lengthAdjust="spacing" textLength="319" x="167" y="482.2518">addStateTransition(fromState, trigger, toState, action, guard)</text><ellipse cx="158" cy="492.4747" fill="#84BE84" rx="3" ry="3" style="stroke:#038048;stroke-width:1.0;"/><text fill="#000000" font-family="sans-serif" font-size="11" lengthAdjust="spacing" textLength="265" x="167" y="497.2337">addInternalTransition(state, trigger, actionguard, )</text><ellipse cx="158" cy="507.4566" fill="#84BE84" rx="3" ry="3" style="stroke:#038048;stroke-width:1.0;"/><text fill="#000000" font-family="sans-serif" font-size="11" lengthAdjust="spacing" textLength="283" x="167" y="512.2155">setDefaultTransition(fromState, toState, action, guard)</text><ellipse cx="158" cy="522.4385" fill="#84BE84" rx="3" ry="3" style="stroke:#038048;stroke-width:1.0;"/><text fill="#000000" font-family="sans-serif" font-size="11" lengthAdjust="spacing" textLength="213" x="167" y="527.1974">setDefaultTransition(state, action, guard)</text><rect fill="#F24D5C" height="6" style="stroke:#C82930;stroke-width:1.0;" width="6" x="155" y="534.4204"/><text fill="#000000" font-family="sans-serif" font-size="11" lengthAdjust="spacing" textLength="185" x="167" y="542.1793">traverseStates(state, statesReached)</text><rect fill="#F24D5C" height="6" style="stroke:#C82930;stroke-width:1.0;" width="6" x="155" y="549.4023"/><text fill="#000000" font-family="sans-serif" font-size="11" lengthAdjust="spacing" textLength="158" x="167" y="557.1612">executeInitialTransition(event)</text><rect fill="#F24D5C" height="6" style="stroke:#C82930;stroke-width:1.0;" width="6" x="155" y="564.3842"/><text fill="#000000" font-family="sans-serif" font-size="11" lengthAdjust="spacing" textLength="235" x="167" y="572.1431">executeStateTransition(transitionData, event)</text><rect fill="#F24D5C" height="6" style="stroke:#C82930;stroke-width:1.0;" width="6" x="155" y="579.3661"/><text fill="#000000" font-family="sans-serif" font-size="11" lengthAdjust="spacing" textLength="251" x="167" y="587.125">executeInternalTransition(transitionData, event)</text><!--MD5=[60d6b92408f98aed8df94d5c6e04aa63]
class State--><rect codeLine="50" fill="#FEFECE" filter="url(#fbtyl6fvvre0)" height="137.8913" id="State" style="stroke:#A80036;stroke-width:1.5;" width="158" x="66.5" y="654"/><ellipse cx="126.75" cy="670" fill="#ADD1B2" rx="11" ry="11" style="stroke:#A80036;stroke-width:1.0;"/><path d="M126.2188,676.9219 Q124.4688,676.9219 123.3281,676.1875 Q122.2031,675.4375 121.6406,674.0938 Q121.0938,672.7344 121.0938,670.9375 Q121.0938,668.9063 121.75,667.4531 Q122.4063,666 123.6875,665.2188 Q124.9688,664.4375 126.8438,664.4375 Q127.7344,664.4375 128.4063,664.625 Q129.0781,664.7969 129.7656,665.1406 L128.9531,667.1563 Q128.3281,666.8438 127.7813,666.7188 Q127.25,666.5938 126.7656,666.5938 Q125.5938,666.5938 124.8906,667.125 Q124.1875,667.6563 123.8906,668.6094 Q123.5938,669.5625 123.5938,670.8281 Q123.5938,672.8438 124.3125,673.8125 Q125.0313,674.7656 126.625,674.7656 Q127.2188,674.7656 127.8438,674.6094 Q128.4688,674.4531 129.2969,674.0781 L129.2969,676.2969 Q128.5625,676.6094 127.7656,676.7656 Q126.9844,676.9219 126.2188,676.9219 Z " fill="#000000"/><text fill="#000000" font-family="sans-serif" font-size="12" lengthAdjust="spacing" textLength="29" x="147.25" y="674.656">State</text><line style="stroke:#A80036;stroke-width:1.5;" x1="67.5" x2="223.5" y1="686" y2="686"/><ellipse cx="77.5" cy="697" fill="none" rx="3" ry="3" style="stroke:#038048;stroke-width:1.0;"/><text fill="#000000" font-family="sans-serif" font-size="11" lengthAdjust="spacing" textLength="61" x="86.5" y="701.7589">entryAction</text><ellipse cx="77.5" cy="711.9819" fill="none" rx="3" ry="3" style="stroke:#038048;stroke-width:1.0;"/><text fill="#000000" font-family="sans-serif" font-size="11" lengthAdjust="spacing" textLength="52" x="86.5" y="716.7408">exitAction</text><ellipse cx="77.5" cy="726.9638" fill="none" rx="3" ry="3" style="stroke:#038048;stroke-width:1.0;"/><text fill="#000000" font-family="sans-serif" font-size="11" lengthAdjust="spacing" textLength="83" x="86.5" y="731.7227">stateTransitions</text><ellipse cx="77.5" cy="741.9457" fill="none" rx="3" ry="3" style="stroke:#038048;stroke-width:1.0;"/><text fill="#000000" font-family="sans-serif" font-size="11" lengthAdjust="spacing" textLength="99" x="86.5" y="746.7046">internalTransitions</text><ellipse cx="77.5" cy="756.9276" fill="none" rx="3" ry="3" style="stroke:#038048;stroke-width:1.0;"/><text fill="#000000" font-family="sans-serif" font-size="11" lengthAdjust="spacing" textLength="116" x="86.5" y="761.6865">defaultStateTransition</text><ellipse cx="77.5" cy="771.9094" fill="none" rx="3" ry="3" style="stroke:#038048;stroke-width:1.0;"/><text fill="#000000" font-family="sans-serif" font-size="11" lengthAdjust="spacing" textLength="132" x="86.5" y="776.6684">defaultInternalTransition</text><line style="stroke:#A80036;stroke-width:1.5;" x1="67.5" x2="223.5" y1="783.8913" y2="783.8913"/><!--MD5=[f2959d41cfb74379be8d5e6d7a13e1ff]
class InitialTransition--><rect codeLine="59" fill="#FEFECE" filter="url(#fbtyl6fvvre0)" height="77.9638" id="InitialTransition" style="stroke:#A80036;stroke-width:1.5;" width="119" x="260" y="684"/><ellipse cx="275" cy="700" fill="#ADD1B2" rx="11" ry="11" style="stroke:#A80036;stroke-width:1.0;"/><path d="M274.4688,706.9219 Q272.7188,706.9219 271.5781,706.1875 Q270.4531,705.4375 269.8906,704.0938 Q269.3438,702.7344 269.3438,700.9375 Q269.3438,698.9063 270,697.4531 Q270.6563,696 271.9375,695.2188 Q273.2188,694.4375 275.0938,694.4375 Q275.9844,694.4375 276.6563,694.625 Q277.3281,694.7969 278.0156,695.1406 L277.2031,697.1563 Q276.5781,696.8438 276.0313,696.7188 Q275.5,696.5938 275.0156,696.5938 Q273.8438,696.5938 273.1406,697.125 Q272.4375,697.6563 272.1406,698.6094 Q271.8438,699.5625 271.8438,700.8281 Q271.8438,702.8438 272.5625,703.8125 Q273.2813,704.7656 274.875,704.7656 Q275.4688,704.7656 276.0938,704.6094 Q276.7188,704.4531 277.5469,704.0781 L277.5469,706.2969 Q276.8125,706.6094 276.0156,706.7656 Q275.2344,706.9219 274.4688,706.9219 Z " fill="#000000"/><text fill="#000000" font-family="sans-serif" font-size="12" lengthAdjust="spacing" textLength="87" x="289" y="704.656">InitialTransition</text><line style="stroke:#A80036;stroke-width:1.5;" x1="261" x2="378" y1="716" y2="716"/><ellipse cx="271" cy="727" fill="none" rx="3" ry="3" style="stroke:#038048;stroke-width:1.0;"/><text fill="#000000" font-family="sans-serif" font-size="11" lengthAdjust="spacing" textLength="25" x="280" y="731.7589">state</text><ellipse cx="271" cy="741.9819" fill="none" rx="3" ry="3" style="stroke:#038048;stroke-width:1.0;"/><text fill="#000000" font-family="sans-serif" font-size="11" lengthAdjust="spacing" textLength="32" x="280" y="746.7408">action</text><line style="stroke:#A80036;stroke-width:1.5;" x1="261" x2="378" y1="753.9638" y2="753.9638"/><!--MD5=[ac13618b1a974308c1f12eb6c57723dc]
class Event--><rect codeLine="75" fill="#FEFECE" filter="url(#fbtyl6fvvre0)" height="122.9094" id="Event" style="stroke:#A80036;stroke-width:1.5;" width="105" x="414" y="661.5"/><ellipse cx="447.9" cy="677.5" fill="#ADD1B2" rx="11" ry="11" style="stroke:#A80036;stroke-width:1.0;"/><path d="M447.3688,684.4219 Q445.6188,684.4219 444.4781,683.6875 Q443.3531,682.9375 442.7906,681.5938 Q442.2438,680.2344 442.2438,678.4375 Q442.2438,676.4063 442.9,674.9531 Q443.5563,673.5 444.8375,672.7188 Q446.1188,671.9375 447.9938,671.9375 Q448.8844,671.9375 449.5563,672.125 Q450.2281,672.2969 450.9156,672.6406 L450.1031,674.6563 Q449.4781,674.3438 448.9313,674.2188 Q448.4,674.0938 447.9156,674.0938 Q446.7438,674.0938 446.0406,674.625 Q445.3375,675.1563 445.0406,676.1094 Q444.7438,677.0625 444.7438,678.3281 Q444.7438,680.3438 445.4625,681.3125 Q446.1813,682.2656 447.775,682.2656 Q448.3688,682.2656 448.9938,682.1094 Q449.6188,681.9531 450.4469,681.5781 L450.4469,683.7969 Q449.7125,684.1094 448.9156,684.2656 Q448.1344,684.4219 447.3688,684.4219 Z " fill="#000000"/><text fill="#000000" font-family="sans-serif" font-size="12" lengthAdjust="spacing" textLength="31" x="466.1" y="682.156">Event</text><line style="stroke:#A80036;stroke-width:1.5;" x1="415" x2="518" y1="693.5" y2="693.5"/><rect fill="none" height="6" style="stroke:#C82930;stroke-width:1.0;" width="6" x="422" y="701.5"/><text fill="#000000" font-family="sans-serif" font-size="11" lengthAdjust="spacing" textLength="29" x="434" y="709.2589">name</text><rect fill="none" height="6" style="stroke:#C82930;stroke-width:1.0;" width="6" x="422" y="716.4819"/><text fill="#000000" font-family="sans-serif" font-size="11" lengthAdjust="spacing" textLength="55" x="434" y="724.2408">parameter</text><line style="stroke:#A80036;stroke-width:1.5;" x1="415" x2="518" y1="731.4638" y2="731.4638"/><ellipse cx="425" cy="742.4638" fill="#84BE84" rx="3" ry="3" style="stroke:#038048;stroke-width:1.0;"/><text fill="#000000" font-family="sans-serif" font-size="11" lengthAdjust="spacing" textLength="35" x="434" y="747.2227">name()</text><ellipse cx="425" cy="757.4457" fill="#84BE84" rx="3" ry="3" style="stroke:#038048;stroke-width:1.0;"/><text fill="#000000" font-family="sans-serif" font-size="11" lengthAdjust="spacing" textLength="79" x="434" y="762.2046">hasParameter()</text><ellipse cx="425" cy="772.4276" fill="#84BE84" rx="3" ry="3" style="stroke:#038048;stroke-width:1.0;"/><text fill="#000000" font-family="sans-serif" font-size="11" lengthAdjust="spacing" textLength="61" x="434" y="777.1865">parameter()</text><!--MD5=[c21ba447c96c164cc1ee124342ce6c0a]
class StateTransition--><rect codeLine="64" fill="#FEFECE" filter="url(#fbtyl6fvvre0)" height="92.9457" id="StateTransition" style="stroke:#A80036;stroke-width:1.5;" width="117" x="7" y="852"/><ellipse cx="22" cy="868" fill="#ADD1B2" rx="11" ry="11" style="stroke:#A80036;stroke-width:1.0;"/><path d="M21.4688,874.9219 Q19.7188,874.9219 18.5781,874.1875 Q17.4531,873.4375 16.8906,872.0938 Q16.3438,870.7344 16.3438,868.9375 Q16.3438,866.9063 17,865.4531 Q17.6563,864 18.9375,863.2188 Q20.2188,862.4375 22.0938,862.4375 Q22.9844,862.4375 23.6563,862.625 Q24.3281,862.7969 25.0156,863.1406 L24.2031,865.1563 Q23.5781,864.8438 23.0313,864.7188 Q22.5,864.5938 22.0156,864.5938 Q20.8438,864.5938 20.1406,865.125 Q19.4375,865.6563 19.1406,866.6094 Q18.8438,867.5625 18.8438,868.8281 Q18.8438,870.8438 19.5625,871.8125 Q20.2813,872.7656 21.875,872.7656 Q22.4688,872.7656 23.0938,872.6094 Q23.7188,872.4531 24.5469,872.0781 L24.5469,874.2969 Q23.8125,874.6094 23.0156,874.7656 Q22.2344,874.9219 21.4688,874.9219 Z " fill="#000000"/><text fill="#000000" font-family="sans-serif" font-size="12" lengthAdjust="spacing" textLength="85" x="36" y="872.656">StateTransition</text><line style="stroke:#A80036;stroke-width:1.5;" x1="8" x2="123" y1="884" y2="884"/><ellipse cx="18" cy="895" fill="none" rx="3" ry="3" style="stroke:#038048;stroke-width:1.0;"/><text fill="#000000" font-family="sans-serif" font-size="11" lengthAdjust="spacing" textLength="25" x="27" y="899.7589">state</text><ellipse cx="18" cy="909.9819" fill="none" rx="3" ry="3" style="stroke:#038048;stroke-width:1.0;"/><text fill="#000000" font-family="sans-serif" font-size="11" lengthAdjust="spacing" textLength="32" x="27" y="914.7408">guard</text><ellipse cx="18" cy="924.9638" fill="none" rx="3" ry="3" style="stroke:#038048;stroke-width:1.0;"/><text fill="#000000" font-family="sans-serif" font-size="11" lengthAdjust="spacing" textLength="32" x="27" y="929.7227">action</text><line style="stroke:#A80036;stroke-width:1.5;" x1="8" x2="123" y1="936.9457" y2="936.9457"/><!--MD5=[5e16239ef230ef4e5970676a7d2e499f]
class InternalTransition--><rect codeLine="70" fill="#FEFECE" filter="url(#fbtyl6fvvre0)" height="77.9638" id="InternalTransition" style="stroke:#A80036;stroke-width:1.5;" width="132" x="159.5" y="859.5"/><ellipse cx="174.5" cy="875.5" fill="#ADD1B2" rx="11" ry="11" style="stroke:#A80036;stroke-width:1.0;"/><path d="M173.9688,882.4219 Q172.2188,882.4219 171.0781,881.6875 Q169.9531,880.9375 169.3906,879.5938 Q168.8438,878.2344 168.8438,876.4375 Q168.8438,874.4063 169.5,872.9531 Q170.1563,871.5 171.4375,870.7188 Q172.7188,869.9375 174.5938,869.9375 Q175.4844,869.9375 176.1563,870.125 Q176.8281,870.2969 177.5156,870.6406 L176.7031,872.6563 Q176.0781,872.3438 175.5313,872.2188 Q175,872.0938 174.5156,872.0938 Q173.3438,872.0938 172.6406,872.625 Q171.9375,873.1563 171.6406,874.1094 Q171.3438,875.0625 171.3438,876.3281 Q171.3438,878.3438 172.0625,879.3125 Q172.7813,880.2656 174.375,880.2656 Q174.9688,880.2656 175.5938,880.1094 Q176.2188,879.9531 177.0469,879.5781 L177.0469,881.7969 Q176.3125,882.1094 175.5156,882.2656 Q174.7344,882.4219 173.9688,882.4219 Z " fill="#000000"/><text fill="#000000" font-family="sans-serif" font-size="12" lengthAdjust="spacing" textLength="100" x="188.5" y="880.156">InternalTransition</text><line style="stroke:#A80036;stroke-width:1.5;" x1="160.5" x2="290.5" y1="891.5" y2="891.5"/><ellipse cx="170.5" cy="902.5" fill="none" rx="3" ry="3" style="stroke:#038048;stroke-width:1.0;"/><text fill="#000000" font-family="sans-serif" font-size="11" lengthAdjust="spacing" textLength="32" x="179.5" y="907.2589">guard</text><ellipse cx="170.5" cy="917.4819" fill="none" rx="3" ry="3" style="stroke:#038048;stroke-width:1.0;"/><text fill="#000000" font-family="sans-serif" font-size="11" lengthAdjust="spacing" textLength="32" x="179.5" y="922.2408">action</text><line style="stroke:#A80036;stroke-width:1.5;" x1="160.5" x2="290.5" y1="929.4638" y2="929.4638"/><!--MD5=[a207ad2c9da366c675680e473e7eab6b]
class EventParameter--><rect codeLine="84" fill="#FEFECE" filter="url(#fbtyl6fvvre0)" height="48" id="EventParameter" style="stroke:#A80036;stroke-width:1.5;" width="119" x="407" y="874.5"/><ellipse cx="422" cy="890.5" fill="#B4A7E5" rx="11" ry="11" style="stroke:#A80036;stroke-width:1.0;"/><path d="M418.0313,897 L418.0313,895.2969 L420.3906,895.0313 L420.3906,886.8281 L418.0313,886.5625 L418.0313,884.8594 L425.1719,884.8594 L425.1719,886.5625 L422.75,886.8281 L422.75,895.0313 L425.1719,895.2969 L425.1719,897 L418.0313,897 Z " fill="#000000"/><text fill="#000000" font-family="sans-serif" font-size="12" font-style="italic" lengthAdjust="spacing" textLength="87" x="436" y="895.156">EventParameter</text><line style="stroke:#A80036;stroke-width:1.5;" x1="408" x2="525" y1="906.5" y2="906.5"/><line style="stroke:#A80036;stroke-width:1.5;" x1="408" x2="525" y1="914.5" y2="914.5"/><!--MD5=[95506b1c3a35118e33887129603a72cf]
reverse link StateMachine to State--><path codeLine="1" d="M193.44,606.14 C186.35,623.27 179.7,639.35 173.74,653.75 " fill="none" id="StateMachine-backto-State" style="stroke:#A80036;stroke-width:1.0;"/><polygon fill="#A80036" points="198.41,594.12,192.4198,598.1347,193.8218,605.2082,199.812,601.1935,198.41,594.12" style="stroke:#A80036;stroke-width:1.0;"/><text fill="#000000" font-family="sans-serif" font-size="13" lengthAdjust="spacing" textLength="20" x="155.735" y="642.1877">1..*</text><!--MD5=[67c3c38b269a4d74eeebfd9b6d235a46]
reverse link StateMachine to InitialTransition--><path codeLine="2" d="M319.5,607.14 C319.5,637.05 319.5,663.7 319.5,683.78 " fill="none" id="StateMachine-backto-InitialTransition" style="stroke:#A80036;stroke-width:1.0;"/><polygon fill="#A80036" points="319.5,594.12,315.5,600.12,319.5,606.12,323.5,600.12,319.5,594.12" style="stroke:#A80036;stroke-width:1.0;"/><!--MD5=[b20897df81fa90eeef6b07dd5cbd744d]
reverse link StateMachine to Event--><path codeLine="3" d="M426.12,606.48 C433.15,626.61 439.68,645.27 445.34,661.47 " fill="none" id="StateMachine-backto-Event" style="stroke:#A80036;stroke-width:1.0;"/><polygon fill="#A80036" points="421.8,594.12,420.0092,601.1052,425.7683,605.4449,427.5591,598.4597,421.8,594.12" style="stroke:#A80036;stroke-width:1.0;"/><text fill="#000000" font-family="sans-serif" font-size="13" lengthAdjust="spacing" textLength="20" x="421.5424" y="649.8806">0..*</text><!--MD5=[9507a5a24bd4c79de7dcca762d690f4b]
reverse link State to StateTransition--><path codeLine="5" d="M108.64,803.94 C101.07,820.35 93.35,837.1 86.57,851.8 " fill="none" id="State-backto-StateTransition" style="stroke:#A80036;stroke-width:1.0;"/><polygon fill="#A80036" points="114.11,792.07,107.9647,795.8429,109.0838,802.9667,115.2291,799.1937,114.11,792.07" style="stroke:#A80036;stroke-width:1.0;"/><text fill="#000000" font-family="sans-serif" font-size="13" lengthAdjust="spacing" textLength="20" x="68.2651" y="840.3027">0..*</text><!--MD5=[6c512e1b971cd483fe2f0d48462de2c7]
reverse link State to InternalTransition--><path codeLine="6" d="M182.36,803.95 C191.23,823.17 200.29,842.83 207.81,859.14 " fill="none" id="State-backto-InternalTransition" style="stroke:#A80036;stroke-width:1.0;"/><polygon fill="#A80036" points="176.89,792.07,175.7709,799.1937,181.9162,802.9667,183.0353,795.8429,176.89,792.07" style="stroke:#A80036;stroke-width:1.0;"/><text fill="#000000" font-family="sans-serif" font-size="13" lengthAdjust="spacing" textLength="20" x="182.8777" y="847.5781">0..*</text><!--MD5=[6079f3957ae7ee0ef87ce1ee77e1e1cd]
reverse link Event to EventParameter--><path codeLine="8" d="M466.5,797.95 C466.5,825.36 466.5,854.51 466.5,874.13 " fill="none" id="Event-backto-EventParameter" style="stroke:#A80036;stroke-width:1.0;"/><polygon fill="#A80036" points="466.5,784.68,462.5,790.68,466.5,796.68,470.5,790.68,466.5,784.68" style="stroke:#A80036;stroke-width:1.0;"/><!--MD5=[14c7ac254525cb0f5a81aa462864d3b9]
@startuml StateMachine
StateMachine *- - "1..*" State
StateMachine *- - InitialTransition
StateMachine *- - "0..*" Event

State *- - "0..*" StateTransition
State *- - "0..*" InternalTransition

Event *- - EventParameter

class StateMachine {
    -states
    -initialTransition
    -validationStatus
    -started
    -currentState
    -eventQueue
    -finalEvent

    +validationStatus()
    +validate()
    +isStarted()
    +start(event)
    +start(eventName, eventParameter)
    +stop()
    +currentState()
    +finalStateReached()
    +hasFinalEvent()
    +takeFinalEvent()
    +hasPendingEvents()
    +addEventToFront(event)
    +addEventToFront(eventName, eventParameter)
    +addEventToBack(event)
    +addEventToBack(eventName, eventParameter)
    +processNextEvent()
    +addState(stateName)
    +setStateEntryAction(stateName, entryAction)
    +setStateExitAction(stateName, exitAction)
    +initialState()
    +setInitialTransition(initialState, action)
    +addStateTransition(fromState, trigger, toState, action, guard)
    +addInternalTransition(state, trigger, actionguard, )
    +setDefaultTransition(fromState, toState, action, guard)
    +setDefaultTransition(state, action, guard)
    -traverseStates(state, statesReached)
    -executeInitialTransition(event)
    -executeStateTransition(transitionData, event)
    -executeInternalTransition(transitionData, event)
}

class State {
    +entryAction
    +exitAction
    +stateTransitions
    +internalTransitions
    +defaultStateTransition
    +defaultInternalTransition
}

class InitialTransition {
    +state
    +action
}

class StateTransition {
    +state
    +guard
    +action
}

class InternalTransition {
    +guard
    +action
}

class Event {
    -name
    -parameter

    +name()
    +hasParameter()
    +parameter()
}

interface EventParameter {
}
@enduml

PlantUML version 1.2021.00(Sun Jan 10 11:25:05 CET 2021)
(GPL source distribution)
Java Runtime: OpenJDK Runtime Environment
JVM: OpenJDK 64-Bit Server VM
Default Encoding: UTF-8
Language: en
Country: US
--></g></svg>